<?xml version="1.0" standalone="no"?>
<!DOCTYPE svg PUBLIC "-//W3C//DTD SVG 1.1//EN" "http://www.w3.org/Graphics/SVG/1.1/DTD/svg11.dtd">
<svg version="1.1" width="1200" height="534" onload="init(evt)" viewBox="0 0 1200 534" xmlns="http://www.w3.org/2000/svg" xmlns:xlink="http://www.w3.org/1999/xlink">
<!-- Flame graph stack visualization. See https://github.com/brendangregg/FlameGraph for latest version, and http://www.brendangregg.com/flamegraphs.html for examples. -->
<!-- NOTES:  -->
<defs>
	<linearGradient id="background" y1="0" y2="1" x1="0" x2="0" >
		<stop stop-color="#eeeeee" offset="5%" />
		<stop stop-color="#eeeeb0" offset="95%" />
	</linearGradient>
</defs>
<style type="text/css">
	text { font-family:Verdana; font-size:12px; fill:rgb(0,0,0); }
	#search, #ignorecase { opacity:0.1; cursor:pointer; }
	#search:hover, #search.show, #ignorecase:hover, #ignorecase.show { opacity:1; }
	#subtitle { text-anchor:middle; font-color:rgb(160,160,160); }
	#title { text-anchor:middle; font-size:17px}
	#unzoom { cursor:pointer; }
	#frames > *:hover { stroke:black; stroke-width:0.5; cursor:pointer; }
	.hide { display:none; }
	.parent { opacity:0.5; }
</style>
<script type="text/ecmascript">
<![CDATA[
	"use strict";
	var details, searchbtn, unzoombtn, matchedtxt, svg, searching, currentSearchTerm, ignorecase, ignorecaseBtn;
	function init(evt) {
		details = document.getElementById("details").firstChild;
		searchbtn = document.getElementById("search");
		ignorecaseBtn = document.getElementById("ignorecase");
		unzoombtn = document.getElementById("unzoom");
		matchedtxt = document.getElementById("matched");
		svg = document.getElementsByTagName("svg")[0];
		searching = 0;
		currentSearchTerm = null;

		// use GET parameters to restore a flamegraphs state.
		var params = get_params();
		if (params.x && params.y)
			zoom(find_group(document.querySelector('[x="' + params.x + '"][y="' + params.y + '"]')));
                if (params.s) search(params.s);
	}

	// event listeners
	window.addEventListener("click", function(e) {
		var target = find_group(e.target);
		if (target) {
			if (target.nodeName == "a") {
				if (e.ctrlKey === false) return;
				e.preventDefault();
			}
			if (target.classList.contains("parent")) unzoom(true);
			zoom(target);
			if (!document.querySelector('.parent')) {
				// we have basically done a clearzoom so clear the url
				var params = get_params();
				if (params.x) delete params.x;
				if (params.y) delete params.y;
				history.replaceState(null, null, parse_params(params));
				unzoombtn.classList.add("hide");
				return;
			}

			// set parameters for zoom state
			var el = target.querySelector("rect");
			if (el && el.attributes && el.attributes.y && el.attributes._orig_x) {
				var params = get_params()
				params.x = el.attributes._orig_x.value;
				params.y = el.attributes.y.value;
				history.replaceState(null, null, parse_params(params));
			}
		}
		else if (e.target.id == "unzoom") clearzoom();
		else if (e.target.id == "search") search_prompt();
		else if (e.target.id == "ignorecase") toggle_ignorecase();
	}, false)

	// mouse-over for info
	// show
	window.addEventListener("mouseover", function(e) {
		var target = find_group(e.target);
		if (target) details.nodeValue = "Function: " + g_to_text(target);
	}, false)

	// clear
	window.addEventListener("mouseout", function(e) {
		var target = find_group(e.target);
		if (target) details.nodeValue = ' ';
	}, false)

	// ctrl-F for search
	// ctrl-I to toggle case-sensitive search
	window.addEventListener("keydown",function (e) {
		if (e.keyCode === 114 || (e.ctrlKey && e.keyCode === 70)) {
			e.preventDefault();
			search_prompt();
		}
		else if (e.ctrlKey && e.keyCode === 73) {
			e.preventDefault();
			toggle_ignorecase();
		}
	}, false)

	// functions
	function get_params() {
		var params = {};
		var paramsarr = window.location.search.substr(1).split('&');
		for (var i = 0; i < paramsarr.length; ++i) {
			var tmp = paramsarr[i].split("=");
			if (!tmp[0] || !tmp[1]) continue;
			params[tmp[0]]  = decodeURIComponent(tmp[1]);
		}
		return params;
	}
	function parse_params(params) {
		var uri = "?";
		for (var key in params) {
			uri += key + '=' + encodeURIComponent(params[key]) + '&';
		}
		if (uri.slice(-1) == "&")
			uri = uri.substring(0, uri.length - 1);
		if (uri == '?')
			uri = window.location.href.split('?')[0];
		return uri;
	}
	function find_child(node, selector) {
		var children = node.querySelectorAll(selector);
		if (children.length) return children[0];
	}
	function find_group(node) {
		var parent = node.parentElement;
		if (!parent) return;
		if (parent.id == "frames") return node;
		return find_group(parent);
	}
	function orig_save(e, attr, val) {
		if (e.attributes["_orig_" + attr] != undefined) return;
		if (e.attributes[attr] == undefined) return;
		if (val == undefined) val = e.attributes[attr].value;
		e.setAttribute("_orig_" + attr, val);
	}
	function orig_load(e, attr) {
		if (e.attributes["_orig_"+attr] == undefined) return;
		e.attributes[attr].value = e.attributes["_orig_" + attr].value;
		e.removeAttribute("_orig_"+attr);
	}
	function g_to_text(e) {
		var text = find_child(e, "title").firstChild.nodeValue;
		return (text)
	}
	function g_to_func(e) {
		var func = g_to_text(e);
		// if there's any manipulation we want to do to the function
		// name before it's searched, do it here before returning.
		return (func);
	}
	function update_text(e) {
		var r = find_child(e, "rect");
		var t = find_child(e, "text");
		var w = parseFloat(r.attributes.width.value) -3;
		var txt = find_child(e, "title").textContent.replace(/\([^(]*\)$/,"");
		t.attributes.x.value = parseFloat(r.attributes.x.value) + 3;

		// Smaller than this size won't fit anything
		if (w < 2 * 12 * 0.59) {
			t.textContent = "";
			return;
		}

		t.textContent = txt;
		var sl = t.getSubStringLength(0, txt.length);
		// check if only whitespace or if we can fit the entire string into width w
		if (/^ *$/.test(txt) || sl < w)
			return;

		// this isn't perfect, but gives a good starting point
		// and avoids calling getSubStringLength too often
		var start = Math.floor((w/sl) * txt.length);
		for (var x = start; x > 0; x = x-2) {
			if (t.getSubStringLength(0, x + 2) <= w) {
				t.textContent = txt.substring(0, x) + "..";
				return;
			}
		}
		t.textContent = "";
	}

	// zoom
	function zoom_reset(e) {
		if (e.attributes != undefined) {
			orig_load(e, "x");
			orig_load(e, "width");
		}
		if (e.childNodes == undefined) return;
		for (var i = 0, c = e.childNodes; i < c.length; i++) {
			zoom_reset(c[i]);
		}
	}
	function zoom_child(e, x, ratio) {
		if (e.attributes != undefined) {
			if (e.attributes.x != undefined) {
				orig_save(e, "x");
				e.attributes.x.value = (parseFloat(e.attributes.x.value) - x - 10) * ratio + 10;
				if (e.tagName == "text")
					e.attributes.x.value = find_child(e.parentNode, "rect[x]").attributes.x.value + 3;
			}
			if (e.attributes.width != undefined) {
				orig_save(e, "width");
				e.attributes.width.value = parseFloat(e.attributes.width.value) * ratio;
			}
		}

		if (e.childNodes == undefined) return;
		for (var i = 0, c = e.childNodes; i < c.length; i++) {
			zoom_child(c[i], x - 10, ratio);
		}
	}
	function zoom_parent(e) {
		if (e.attributes) {
			if (e.attributes.x != undefined) {
				orig_save(e, "x");
				e.attributes.x.value = 10;
			}
			if (e.attributes.width != undefined) {
				orig_save(e, "width");
				e.attributes.width.value = parseInt(svg.width.baseVal.value) - (10 * 2);
			}
		}
		if (e.childNodes == undefined) return;
		for (var i = 0, c = e.childNodes; i < c.length; i++) {
			zoom_parent(c[i]);
		}
	}
	function zoom(node) {
		var attr = find_child(node, "rect").attributes;
		var width = parseFloat(attr.width.value);
		var xmin = parseFloat(attr.x.value);
		var xmax = parseFloat(xmin + width);
		var ymin = parseFloat(attr.y.value);
		var ratio = (svg.width.baseVal.value - 2 * 10) / width;

		// XXX: Workaround for JavaScript float issues (fix me)
		var fudge = 0.0001;

		unzoombtn.classList.remove("hide");

		var el = document.getElementById("frames").children;
		for (var i = 0; i < el.length; i++) {
			var e = el[i];
			var a = find_child(e, "rect").attributes;
			var ex = parseFloat(a.x.value);
			var ew = parseFloat(a.width.value);
			var upstack;
			// Is it an ancestor
			if (0 == 0) {
				upstack = parseFloat(a.y.value) > ymin;
			} else {
				upstack = parseFloat(a.y.value) < ymin;
			}
			if (upstack) {
				// Direct ancestor
				if (ex <= xmin && (ex+ew+fudge) >= xmax) {
					e.classList.add("parent");
					zoom_parent(e);
					update_text(e);
				}
				// not in current path
				else
					e.classList.add("hide");
			}
			// Children maybe
			else {
				// no common path
				if (ex < xmin || ex + fudge >= xmax) {
					e.classList.add("hide");
				}
				else {
					zoom_child(e, xmin, ratio);
					update_text(e);
				}
			}
		}
		search();
	}
	function unzoom(dont_update_text) {
		unzoombtn.classList.add("hide");
		var el = document.getElementById("frames").children;
		for(var i = 0; i < el.length; i++) {
			el[i].classList.remove("parent");
			el[i].classList.remove("hide");
			zoom_reset(el[i]);
			if(!dont_update_text) update_text(el[i]);
		}
		search();
	}
	function clearzoom() {
		unzoom();

		// remove zoom state
		var params = get_params();
		if (params.x) delete params.x;
		if (params.y) delete params.y;
		history.replaceState(null, null, parse_params(params));
	}

	// search
	function toggle_ignorecase() {
		ignorecase = !ignorecase;
		if (ignorecase) {
			ignorecaseBtn.classList.add("show");
		} else {
			ignorecaseBtn.classList.remove("show");
		}
		reset_search();
		search();
	}
	function reset_search() {
		var el = document.querySelectorAll("#frames rect");
		for (var i = 0; i < el.length; i++) {
			orig_load(el[i], "fill")
		}
		var params = get_params();
		delete params.s;
		history.replaceState(null, null, parse_params(params));
	}
	function search_prompt() {
		if (!searching) {
			var term = prompt("Enter a search term (regexp " +
			    "allowed, eg: ^ext4_)"
			    + (ignorecase ? ", ignoring case" : "")
			    + "\nPress Ctrl-i to toggle case sensitivity", "");
			if (term != null) search(term);
		} else {
			reset_search();
			searching = 0;
			currentSearchTerm = null;
			searchbtn.classList.remove("show");
			searchbtn.firstChild.nodeValue = "Search"
			matchedtxt.classList.add("hide");
			matchedtxt.firstChild.nodeValue = ""
		}
	}
	function search(term) {
		if (term) currentSearchTerm = term;

		var re = new RegExp(currentSearchTerm, ignorecase ? 'i' : '');
		var el = document.getElementById("frames").children;
		var matches = new Object();
		var maxwidth = 0;
		for (var i = 0; i < el.length; i++) {
			var e = el[i];
			var func = g_to_func(e);
			var rect = find_child(e, "rect");
			if (func == null || rect == null)
				continue;

			// Save max width. Only works as we have a root frame
			var w = parseFloat(rect.attributes.width.value);
			if (w > maxwidth)
				maxwidth = w;

			if (func.match(re)) {
				// highlight
				var x = parseFloat(rect.attributes.x.value);
				orig_save(rect, "fill");
				rect.attributes.fill.value = "rgb(230,0,230)";

				// remember matches
				if (matches[x] == undefined) {
					matches[x] = w;
				} else {
					if (w > matches[x]) {
						// overwrite with parent
						matches[x] = w;
					}
				}
				searching = 1;
			}
		}
		if (!searching)
			return;
		var params = get_params();
		params.s = currentSearchTerm;
		history.replaceState(null, null, parse_params(params));

		searchbtn.classList.add("show");
		searchbtn.firstChild.nodeValue = "Reset Search";

		// calculate percent matched, excluding vertical overlap
		var count = 0;
		var lastx = -1;
		var lastw = 0;
		var keys = Array();
		for (k in matches) {
			if (matches.hasOwnProperty(k))
				keys.push(k);
		}
		// sort the matched frames by their x location
		// ascending, then width descending
		keys.sort(function(a, b){
			return a - b;
		});
		// Step through frames saving only the biggest bottom-up frames
		// thanks to the sort order. This relies on the tree property
		// where children are always smaller than their parents.
		var fudge = 0.0001;	// JavaScript floating point
		for (var k in keys) {
			var x = parseFloat(keys[k]);
			var w = matches[keys[k]];
			if (x >= lastx + lastw - fudge) {
				count += w;
				lastx = x;
				lastw = w;
			}
		}
		// display matched percent
		matchedtxt.classList.remove("hide");
		var pct = 100 * count / maxwidth;
		if (pct != 100) pct = pct.toFixed(1)
		matchedtxt.firstChild.nodeValue = "Matched: " + pct + "%";
	}
]]>
</script>
<rect x="0.0" y="0" width="1200.0" height="534.0" fill="url(#background)"  />
<text id="title" x="600.00" y="24" >Flame Graph</text>
<text id="details" x="10.00" y="517" > </text>
<text id="unzoom" x="10.00" y="24" class="hide">Reset Zoom</text>
<text id="search" x="1090.00" y="24" >Search</text>
<text id="ignorecase" x="1174.00" y="24" >ic</text>
<text id="matched" x="1090.00" y="517" > </text>
<g id="frames">
<g >
<title>start_thread (27,834,168 samples, 85.12%)</title><rect x="185.6" y="437" width="1004.3" height="15.0" fill="rgb(212,34,8)" rx="2" ry="2" />
<text  x="188.58" y="447.5" >start_thread</text>
</g>
<g >
<title>[[kernel.kallsyms]] (8,364 samples, 0.03%)</title><rect x="54.7" y="69" width="0.3" height="15.0" fill="rgb(213,39,9)" rx="2" ry="2" />
<text  x="57.73" y="79.5" ></text>
</g>
<g >
<title>[[kernel.kallsyms]] (260,091 samples, 0.80%)</title><rect x="30.1" y="245" width="9.3" height="15.0" fill="rgb(213,39,9)" rx="2" ry="2" />
<text  x="33.05" y="255.5" ></text>
</g>
<g >
<title>_dl_start_final (433,732 samples, 1.33%)</title><rect x="169.8" y="421" width="15.6" height="15.0" fill="rgb(252,216,51)" rx="2" ry="2" />
<text  x="172.79" y="431.5" ></text>
</g>
<g >
<title>[[kernel.kallsyms]] (331,915 samples, 1.01%)</title><rect x="10.0" y="373" width="12.0" height="15.0" fill="rgb(213,39,9)" rx="2" ry="2" />
<text  x="13.00" y="383.5" ></text>
</g>
<g >
<title>__GI___futex_abstimed_wait_cancelable64 (85,476 samples, 0.26%)</title><rect x="52.0" y="341" width="3.0" height="15.0" fill="rgb(215,48,11)" rx="2" ry="2" />
<text  x="54.95" y="351.5" ></text>
</g>
<g >
<title>[[kernel.kallsyms]] (23,669 samples, 0.07%)</title><rect x="320.3" y="181" width="0.8" height="15.0" fill="rgb(213,39,9)" rx="2" ry="2" />
<text  x="323.26" y="191.5" ></text>
</g>
<g >
<title>set_cell (1,109,509 samples, 3.39%)</title><rect x="1149.8" y="405" width="40.0" height="15.0" fill="rgb(217,59,14)" rx="2" ry="2" />
<text  x="1152.80" y="415.5" >set..</text>
</g>
<g >
<title>[[kernel.kallsyms]] (223,870 samples, 0.68%)</title><rect x="22.0" y="149" width="8.1" height="15.0" fill="rgb(213,39,9)" rx="2" ry="2" />
<text  x="24.98" y="159.5" ></text>
</g>
<g >
<title>rand (3,180,144 samples, 9.72%)</title><rect x="55.0" y="357" width="114.8" height="15.0" fill="rgb(243,179,42)" rx="2" ry="2" />
<text  x="58.04" y="367.5" >rand</text>
</g>
<g >
<title>[[kernel.kallsyms]] (223,870 samples, 0.68%)</title><rect x="22.0" y="101" width="8.1" height="15.0" fill="rgb(213,39,9)" rx="2" ry="2" />
<text  x="24.98" y="111.5" ></text>
</g>
<g >
<title>_IO_new_file_write (223,870 samples, 0.68%)</title><rect x="22.0" y="309" width="8.1" height="15.0" fill="rgb(222,80,19)" rx="2" ry="2" />
<text  x="24.98" y="319.5" ></text>
</g>
<g >
<title>__libc_start_call_main (4,096,340 samples, 12.53%)</title><rect x="22.0" y="421" width="147.8" height="15.0" fill="rgb(210,26,6)" rx="2" ry="2" />
<text  x="24.98" y="431.5" >__libc_start_call_..</text>
</g>
<g >
<title>__GI___libc_write (223,870 samples, 0.68%)</title><rect x="22.0" y="277" width="8.1" height="15.0" fill="rgb(217,57,13)" rx="2" ry="2" />
<text  x="24.98" y="287.5" ></text>
</g>
<g >
<title>cgol (32,699,988 samples, 100.00%)</title><rect x="10.0" y="469" width="1179.9" height="15.0" fill="rgb(243,179,42)" rx="2" ry="2" />
<text  x="13.00" y="479.5" >cgol</text>
</g>
<g >
<title>__futex_abstimed_wait_common (85,476 samples, 0.26%)</title><rect x="52.0" y="325" width="3.0" height="15.0" fill="rgb(205,0,0)" rx="2" ry="2" />
<text  x="54.95" y="335.5" ></text>
</g>
<g >
<title>_dl_map_object_from_fd (433,732 samples, 1.33%)</title><rect x="169.8" y="309" width="15.6" height="15.0" fill="rgb(249,205,49)" rx="2" ry="2" />
<text  x="172.79" y="319.5" ></text>
</g>
<g >
<title>[[kernel.kallsyms]] (223,870 samples, 0.68%)</title><rect x="22.0" y="229" width="8.1" height="15.0" fill="rgb(213,39,9)" rx="2" ry="2" />
<text  x="24.98" y="239.5" ></text>
</g>
<g >
<title>get_cell (1,800,369 samples, 5.51%)</title><rect x="348.7" y="405" width="65.0" height="15.0" fill="rgb(245,185,44)" rx="2" ry="2" />
<text  x="351.74" y="415.5" >get_cell</text>
</g>
<g >
<title>[[kernel.kallsyms]] (49,774 samples, 0.15%)</title><rect x="319.3" y="245" width="1.8" height="15.0" fill="rgb(213,39,9)" rx="2" ry="2" />
<text  x="322.32" y="255.5" ></text>
</g>
<g >
<title>[[kernel.kallsyms]] (46,004 samples, 0.14%)</title><rect x="321.1" y="181" width="1.7" height="15.0" fill="rgb(213,39,9)" rx="2" ry="2" />
<text  x="324.11" y="191.5" ></text>
</g>
<g >
<title>[[kernel.kallsyms]] (49,774 samples, 0.15%)</title><rect x="319.3" y="213" width="1.8" height="15.0" fill="rgb(213,39,9)" rx="2" ry="2" />
<text  x="322.32" y="223.5" ></text>
</g>
<g >
<title>__random (3,180,144 samples, 9.72%)</title><rect x="55.0" y="341" width="114.8" height="15.0" fill="rgb(245,185,44)" rx="2" ry="2" />
<text  x="58.04" y="351.5" >__random</text>
</g>
<g >
<title>[[kernel.kallsyms]] (103,291 samples, 0.32%)</title><rect x="189.2" y="245" width="3.7" height="15.0" fill="rgb(213,39,9)" rx="2" ry="2" />
<text  x="192.18" y="255.5" ></text>
</g>
<g >
<title>__pthread_clockjoin_ex (85,476 samples, 0.26%)</title><rect x="52.0" y="357" width="3.0" height="15.0" fill="rgb(249,203,48)" rx="2" ry="2" />
<text  x="54.95" y="367.5" ></text>
</g>
<g >
<title>get_bitmap (467,426 samples, 1.43%)</title><rect x="396.8" y="389" width="16.9" height="15.0" fill="rgb(217,58,14)" rx="2" ry="2" />
<text  x="399.84" y="399.5" ></text>
</g>
<g >
<title>main (3,612,379 samples, 11.05%)</title><rect x="39.4" y="405" width="130.4" height="15.0" fill="rgb(243,179,42)" rx="2" ry="2" />
<text  x="42.44" y="415.5" >main</text>
</g>
<g >
<title>__printf (346,759 samples, 1.06%)</title><rect x="39.4" y="389" width="12.6" height="15.0" fill="rgb(229,110,26)" rx="2" ry="2" />
<text  x="42.44" y="399.5" ></text>
</g>
<g >
<title>[[kernel.kallsyms]] (49,774 samples, 0.15%)</title><rect x="319.3" y="341" width="1.8" height="15.0" fill="rgb(213,39,9)" rx="2" ry="2" />
<text  x="322.32" y="351.5" ></text>
</g>
<g >
<title>game_loop (27,628,189 samples, 84.49%)</title><rect x="192.9" y="421" width="996.9" height="15.0" fill="rgb(246,188,45)" rx="2" ry="2" />
<text  x="195.90" y="431.5" >game_loop</text>
</g>
<g >
<title>[[kernel.kallsyms]] (31,575 samples, 0.10%)</title><rect x="53.9" y="197" width="1.1" height="15.0" fill="rgb(213,39,9)" rx="2" ry="2" />
<text  x="56.90" y="207.5" ></text>
</g>
<g >
<title>[[kernel.kallsyms]] (331,915 samples, 1.01%)</title><rect x="10.0" y="405" width="12.0" height="15.0" fill="rgb(213,39,9)" rx="2" ry="2" />
<text  x="13.00" y="415.5" ></text>
</g>
<g >
<title>[[kernel.kallsyms]] (46,004 samples, 0.14%)</title><rect x="321.1" y="293" width="1.7" height="15.0" fill="rgb(213,39,9)" rx="2" ry="2" />
<text  x="324.11" y="303.5" ></text>
</g>
<g >
<title>dl_main (433,732 samples, 1.33%)</title><rect x="169.8" y="389" width="15.6" height="15.0" fill="rgb(236,145,34)" rx="2" ry="2" />
<text  x="172.79" y="399.5" ></text>
</g>
<g >
<title>[[kernel.kallsyms]] (331,915 samples, 1.01%)</title><rect x="10.0" y="341" width="12.0" height="15.0" fill="rgb(213,39,9)" rx="2" ry="2" />
<text  x="13.00" y="351.5" ></text>
</g>
<g >
<title>__find_specmb (123,857 samples, 0.38%)</title><rect x="47.5" y="357" width="4.5" height="15.0" fill="rgb(233,129,30)" rx="2" ry="2" />
<text  x="50.48" y="367.5" ></text>
</g>
<g >
<title>[[kernel.kallsyms]] (260,091 samples, 0.80%)</title><rect x="30.1" y="165" width="9.3" height="15.0" fill="rgb(213,39,9)" rx="2" ry="2" />
<text  x="33.05" y="175.5" ></text>
</g>
<g >
<title>[[kernel.kallsyms]] (433,732 samples, 1.33%)</title><rect x="169.8" y="37" width="15.6" height="15.0" fill="rgb(213,39,9)" rx="2" ry="2" />
<text  x="172.79" y="47.5" ></text>
</g>
<g >
<title>[[kernel.kallsyms]] (46,004 samples, 0.14%)</title><rect x="321.1" y="229" width="1.7" height="15.0" fill="rgb(213,39,9)" rx="2" ry="2" />
<text  x="324.11" y="239.5" ></text>
</g>
<g >
<title>[[kernel.kallsyms]] (433,732 samples, 1.33%)</title><rect x="169.8" y="229" width="15.6" height="15.0" fill="rgb(213,39,9)" rx="2" ry="2" />
<text  x="172.79" y="239.5" ></text>
</g>
<g >
<title>get_column_idx (885,931 samples, 2.71%)</title><rect x="1117.8" y="373" width="32.0" height="15.0" fill="rgb(244,182,43)" rx="2" ry="2" />
<text  x="1120.83" y="383.5" >ge..</text>
</g>
<g >
<title>[[kernel.kallsyms]] (103,291 samples, 0.32%)</title><rect x="189.2" y="325" width="3.7" height="15.0" fill="rgb(213,39,9)" rx="2" ry="2" />
<text  x="192.18" y="335.5" ></text>
</g>
<g >
<title>[[kernel.kallsyms]] (12,244 samples, 0.04%)</title><rect x="54.6" y="165" width="0.4" height="15.0" fill="rgb(213,39,9)" rx="2" ry="2" />
<text  x="57.59" y="175.5" ></text>
</g>
<g >
<title>[[kernel.kallsyms]] (260,091 samples, 0.80%)</title><rect x="30.1" y="357" width="9.3" height="15.0" fill="rgb(213,39,9)" rx="2" ry="2" />
<text  x="33.05" y="367.5" ></text>
</g>
<g >
<title>[[kernel.kallsyms]] (307,716 samples, 0.94%)</title><rect x="10.9" y="197" width="11.1" height="15.0" fill="rgb(213,39,9)" rx="2" ry="2" />
<text  x="13.87" y="207.5" ></text>
</g>
<g >
<title>[[kernel.kallsyms]] (223,870 samples, 0.68%)</title><rect x="22.0" y="197" width="8.1" height="15.0" fill="rgb(213,39,9)" rx="2" ry="2" />
<text  x="24.98" y="207.5" ></text>
</g>
<g >
<title>[[kernel.kallsyms]] (260,091 samples, 0.80%)</title><rect x="30.1" y="261" width="9.3" height="15.0" fill="rgb(213,39,9)" rx="2" ry="2" />
<text  x="33.05" y="271.5" ></text>
</g>
<g >
<title>__GI_exit (483,961 samples, 1.48%)</title><rect x="22.0" y="405" width="17.4" height="15.0" fill="rgb(236,147,35)" rx="2" ry="2" />
<text  x="24.98" y="415.5" ></text>
</g>
<g >
<title>[[kernel.kallsyms]] (46,004 samples, 0.14%)</title><rect x="321.1" y="357" width="1.7" height="15.0" fill="rgb(213,39,9)" rx="2" ry="2" />
<text  x="324.11" y="367.5" ></text>
</g>
<g >
<title>advise_stack_range (103,291 samples, 0.32%)</title><rect x="189.2" y="421" width="3.7" height="15.0" fill="rgb(236,145,34)" rx="2" ry="2" />
<text  x="192.18" y="431.5" ></text>
</g>
<g >
<title>[[kernel.kallsyms]] (331,915 samples, 1.01%)</title><rect x="10.0" y="261" width="12.0" height="15.0" fill="rgb(213,39,9)" rx="2" ry="2" />
<text  x="13.00" y="271.5" ></text>
</g>
<g >
<title>_dl_map_object_deps (433,732 samples, 1.33%)</title><rect x="169.8" y="373" width="15.6" height="15.0" fill="rgb(219,68,16)" rx="2" ry="2" />
<text  x="172.79" y="383.5" ></text>
</g>
<g >
<title>[[kernel.kallsyms]] (260,091 samples, 0.80%)</title><rect x="30.1" y="325" width="9.3" height="15.0" fill="rgb(213,39,9)" rx="2" ry="2" />
<text  x="33.05" y="335.5" ></text>
</g>
<g >
<title>__futex_abstimed_wait_common64 (85,476 samples, 0.26%)</title><rect x="52.0" y="309" width="3.0" height="15.0" fill="rgb(220,71,17)" rx="2" ry="2" />
<text  x="54.95" y="319.5" ></text>
</g>
<g >
<title>all (32,701,605 samples, 100%)</title><rect x="10.0" y="485" width="1180.0" height="15.0" fill="rgb(213,39,9)" rx="2" ry="2" />
<text  x="13.00" y="495.5" ></text>
</g>
<g >
<title>[[kernel.kallsyms]] (433,732 samples, 1.33%)</title><rect x="169.8" y="69" width="15.6" height="15.0" fill="rgb(213,39,9)" rx="2" ry="2" />
<text  x="172.79" y="79.5" ></text>
</g>
<g >
<title>[[kernel.kallsyms]] (331,915 samples, 1.01%)</title><rect x="10.0" y="357" width="12.0" height="15.0" fill="rgb(213,39,9)" rx="2" ry="2" />
<text  x="13.00" y="367.5" ></text>
</g>
<g >
<title>__libc_thread_freeres (20,563 samples, 0.06%)</title><rect x="188.4" y="421" width="0.8" height="15.0" fill="rgb(245,186,44)" rx="2" ry="2" />
<text  x="191.43" y="431.5" ></text>
</g>
<g >
<title>[[kernel.kallsyms]] (33,709 samples, 0.10%)</title><rect x="321.6" y="149" width="1.2" height="15.0" fill="rgb(213,39,9)" rx="2" ry="2" />
<text  x="324.56" y="159.5" ></text>
</g>
<g >
<title>[[kernel.kallsyms]] (331,915 samples, 1.01%)</title><rect x="10.0" y="229" width="12.0" height="15.0" fill="rgb(213,39,9)" rx="2" ry="2" />
<text  x="13.00" y="239.5" ></text>
</g>
<g >
<title>thread_start (27,834,168 samples, 85.12%)</title><rect x="185.6" y="453" width="1004.3" height="15.0" fill="rgb(212,34,8)" rx="2" ry="2" />
<text  x="188.58" y="463.5" >thread_start</text>
</g>
<g >
<title>[[kernel.kallsyms]] (433,732 samples, 1.33%)</title><rect x="169.8" y="261" width="15.6" height="15.0" fill="rgb(213,39,9)" rx="2" ry="2" />
<text  x="172.79" y="271.5" ></text>
</g>
<g >
<title>futex_wait (49,774 samples, 0.15%)</title><rect x="319.3" y="373" width="1.8" height="15.0" fill="rgb(235,138,33)" rx="2" ry="2" />
<text  x="322.32" y="383.5" ></text>
</g>
<g >
<title>_dl_map_object (433,732 samples, 1.33%)</title><rect x="169.8" y="325" width="15.6" height="15.0" fill="rgb(248,199,47)" rx="2" ry="2" />
<text  x="172.79" y="335.5" ></text>
</g>
<g >
<title>[[kernel.kallsyms]] (85,476 samples, 0.26%)</title><rect x="52.0" y="277" width="3.0" height="15.0" fill="rgb(213,39,9)" rx="2" ry="2" />
<text  x="54.95" y="287.5" ></text>
</g>
<g >
<title>collect_result (85,476 samples, 0.26%)</title><rect x="52.0" y="373" width="3.0" height="15.0" fill="rgb(222,78,18)" rx="2" ry="2" />
<text  x="54.95" y="383.5" ></text>
</g>
<g >
<title>[[kernel.kallsyms]] (12,244 samples, 0.04%)</title><rect x="54.6" y="149" width="0.4" height="15.0" fill="rgb(213,39,9)" rx="2" ry="2" />
<text  x="57.59" y="159.5" ></text>
</g>
<g >
<title>[[kernel.kallsyms]] (12,244 samples, 0.04%)</title><rect x="54.6" y="181" width="0.4" height="15.0" fill="rgb(213,39,9)" rx="2" ry="2" />
<text  x="57.59" y="191.5" ></text>
</g>
<g >
<title>[[kernel.kallsyms]] (12,244 samples, 0.04%)</title><rect x="54.6" y="117" width="0.4" height="15.0" fill="rgb(213,39,9)" rx="2" ry="2" />
<text  x="57.59" y="127.5" ></text>
</g>
<g >
<title>[[kernel.kallsyms]] (223,870 samples, 0.68%)</title><rect x="22.0" y="133" width="8.1" height="15.0" fill="rgb(213,39,9)" rx="2" ry="2" />
<text  x="24.98" y="143.5" ></text>
</g>
<g >
<title>[[kernel.kallsyms]] (49,774 samples, 0.15%)</title><rect x="319.3" y="293" width="1.8" height="15.0" fill="rgb(213,39,9)" rx="2" ry="2" />
<text  x="322.32" y="303.5" ></text>
</g>
<g >
<title>[[kernel.kallsyms]] (103,291 samples, 0.32%)</title><rect x="189.2" y="389" width="3.7" height="15.0" fill="rgb(213,39,9)" rx="2" ry="2" />
<text  x="192.18" y="399.5" ></text>
</g>
<g >
<title>_start (4,530,072 samples, 13.85%)</title><rect x="22.0" y="453" width="163.4" height="15.0" fill="rgb(245,185,44)" rx="2" ry="2" />
<text  x="24.98" y="463.5" >_start</text>
</g>
<g >
<title>[[kernel.kallsyms]] (49,774 samples, 0.15%)</title><rect x="319.3" y="229" width="1.8" height="15.0" fill="rgb(213,39,9)" rx="2" ry="2" />
<text  x="322.32" y="239.5" ></text>
</g>
<g >
<title>new_do_write (223,870 samples, 0.68%)</title><rect x="22.0" y="325" width="8.1" height="15.0" fill="rgb(206,5,1)" rx="2" ry="2" />
<text  x="24.98" y="335.5" ></text>
</g>
<g >
<title>extract_alive_status_help (719,630 samples, 2.20%)</title><rect x="322.8" y="389" width="25.9" height="15.0" fill="rgb(213,41,9)" rx="2" ry="2" />
<text  x="325.77" y="399.5" >e..</text>
</g>
<g >
<title>futex_wake (46,004 samples, 0.14%)</title><rect x="321.1" y="389" width="1.7" height="15.0" fill="rgb(219,65,15)" rx="2" ry="2" />
<text  x="324.11" y="399.5" ></text>
</g>
<g >
<title>[[kernel.kallsyms]] (260,091 samples, 0.80%)</title><rect x="30.1" y="277" width="9.3" height="15.0" fill="rgb(213,39,9)" rx="2" ry="2" />
<text  x="33.05" y="287.5" ></text>
</g>
<g >
<title>cell_shift_amount_in_bitmap (1,556,974 samples, 4.76%)</title><rect x="816.5" y="373" width="56.2" height="15.0" fill="rgb(252,220,52)" rx="2" ry="2" />
<text  x="819.55" y="383.5" >cell_..</text>
</g>
<g >
<title>initialize_grid (3,180,144 samples, 9.72%)</title><rect x="55.0" y="389" width="114.8" height="15.0" fill="rgb(235,141,33)" rx="2" ry="2" />
<text  x="58.04" y="399.5" >initialize_grid</text>
</g>
<g >
<title>[[kernel.kallsyms]] (3,833 samples, 0.01%)</title><rect x="185.4" y="389" width="0.2" height="15.0" fill="rgb(213,39,9)" rx="2" ry="2" />
<text  x="188.44" y="399.5" ></text>
</g>
<g >
<title>[[kernel.kallsyms]] (3,833 samples, 0.01%)</title><rect x="185.4" y="421" width="0.2" height="15.0" fill="rgb(213,39,9)" rx="2" ry="2" />
<text  x="188.44" y="431.5" ></text>
</g>
<g >
<title>__GI___libc_write (223,870 samples, 0.68%)</title><rect x="22.0" y="293" width="8.1" height="15.0" fill="rgb(217,57,13)" rx="2" ry="2" />
<text  x="24.98" y="303.5" ></text>
</g>
<g >
<title>[[kernel.kallsyms]] (223,870 samples, 0.68%)</title><rect x="22.0" y="85" width="8.1" height="15.0" fill="rgb(213,39,9)" rx="2" ry="2" />
<text  x="24.98" y="95.5" ></text>
</g>
<g >
<title>__aarch64_cas4_acq (1,554,356 samples, 4.75%)</title><rect x="55.0" y="325" width="56.1" height="15.0" fill="rgb(231,124,29)" rx="2" ry="2" />
<text  x="58.04" y="335.5" >__aar..</text>
</g>
<g >
<title>[[kernel.kallsyms]] (331,915 samples, 1.01%)</title><rect x="10.0" y="421" width="12.0" height="15.0" fill="rgb(213,39,9)" rx="2" ry="2" />
<text  x="13.00" y="431.5" ></text>
</g>
<g >
<title>[[kernel.kallsyms]] (103,291 samples, 0.32%)</title><rect x="189.2" y="261" width="3.7" height="15.0" fill="rgb(213,39,9)" rx="2" ry="2" />
<text  x="192.18" y="271.5" ></text>
</g>
<g >
<title>[[kernel.kallsyms]] (433,732 samples, 1.33%)</title><rect x="169.8" y="197" width="15.6" height="15.0" fill="rgb(213,39,9)" rx="2" ry="2" />
<text  x="172.79" y="207.5" ></text>
</g>
<g >
<title>[[kernel.kallsyms]] (46,004 samples, 0.14%)</title><rect x="321.1" y="325" width="1.7" height="15.0" fill="rgb(213,39,9)" rx="2" ry="2" />
<text  x="324.11" y="335.5" ></text>
</g>
<g >
<title>_IO_flush_all_lockp (223,870 samples, 0.68%)</title><rect x="22.0" y="357" width="8.1" height="15.0" fill="rgb(208,17,4)" rx="2" ry="2" />
<text  x="24.98" y="367.5" ></text>
</g>
<g >
<title>[[kernel.kallsyms]] (331,915 samples, 1.01%)</title><rect x="10.0" y="309" width="12.0" height="15.0" fill="rgb(213,39,9)" rx="2" ry="2" />
<text  x="13.00" y="319.5" ></text>
</g>
<g >
<title>[[kernel.kallsyms]] (331,915 samples, 1.01%)</title><rect x="10.0" y="389" width="12.0" height="15.0" fill="rgb(213,39,9)" rx="2" ry="2" />
<text  x="13.00" y="399.5" ></text>
</g>
<g >
<title>[[kernel.kallsyms]] (85,476 samples, 0.26%)</title><rect x="52.0" y="261" width="3.0" height="15.0" fill="rgb(213,39,9)" rx="2" ry="2" />
<text  x="54.95" y="271.5" ></text>
</g>
<g >
<title>cell_shift_amount_in_bitmap (1,109,509 samples, 3.39%)</title><rect x="1149.8" y="389" width="40.0" height="15.0" fill="rgb(252,220,52)" rx="2" ry="2" />
<text  x="1152.80" y="399.5" >cel..</text>
</g>
<g >
<title>[[kernel.kallsyms]] (46,004 samples, 0.14%)</title><rect x="321.1" y="213" width="1.7" height="15.0" fill="rgb(213,39,9)" rx="2" ry="2" />
<text  x="324.11" y="223.5" ></text>
</g>
<g >
<title>[[kernel.kallsyms]] (260,091 samples, 0.80%)</title><rect x="30.1" y="213" width="9.3" height="15.0" fill="rgb(213,39,9)" rx="2" ry="2" />
<text  x="33.05" y="223.5" ></text>
</g>
<g >
<title>[[kernel.kallsyms]] (223,870 samples, 0.68%)</title><rect x="22.0" y="261" width="8.1" height="15.0" fill="rgb(213,39,9)" rx="2" ry="2" />
<text  x="24.98" y="271.5" ></text>
</g>
<g >
<title>[[kernel.kallsyms]] (103,291 samples, 0.32%)</title><rect x="189.2" y="357" width="3.7" height="15.0" fill="rgb(213,39,9)" rx="2" ry="2" />
<text  x="192.18" y="367.5" ></text>
</g>
<g >
<title>[[kernel.kallsyms]] (46,004 samples, 0.14%)</title><rect x="321.1" y="165" width="1.7" height="15.0" fill="rgb(213,39,9)" rx="2" ry="2" />
<text  x="324.11" y="175.5" ></text>
</g>
<g >
<title>[[kernel.kallsyms]] (103,291 samples, 0.32%)</title><rect x="189.2" y="277" width="3.7" height="15.0" fill="rgb(213,39,9)" rx="2" ry="2" />
<text  x="192.18" y="287.5" ></text>
</g>
<g >
<title>[[kernel.kallsyms]] (46,004 samples, 0.14%)</title><rect x="321.1" y="277" width="1.7" height="15.0" fill="rgb(213,39,9)" rx="2" ry="2" />
<text  x="324.11" y="287.5" ></text>
</g>
<g >
<title>[[kernel.kallsyms]] (49,774 samples, 0.15%)</title><rect x="319.3" y="309" width="1.8" height="15.0" fill="rgb(213,39,9)" rx="2" ry="2" />
<text  x="322.32" y="319.5" ></text>
</g>
<g >
<title>[[kernel.kallsyms]] (331,915 samples, 1.01%)</title><rect x="10.0" y="293" width="12.0" height="15.0" fill="rgb(213,39,9)" rx="2" ry="2" />
<text  x="13.00" y="303.5" ></text>
</g>
<g >
<title>[[kernel.kallsyms]] (433,732 samples, 1.33%)</title><rect x="169.8" y="149" width="15.6" height="15.0" fill="rgb(213,39,9)" rx="2" ry="2" />
<text  x="172.79" y="159.5" ></text>
</g>
<g >
<title>[[kernel.kallsyms]] (331,915 samples, 1.01%)</title><rect x="10.0" y="213" width="12.0" height="15.0" fill="rgb(213,39,9)" rx="2" ry="2" />
<text  x="13.00" y="223.5" ></text>
</g>
<g >
<title>[[kernel.kallsyms]] (46,004 samples, 0.14%)</title><rect x="321.1" y="373" width="1.7" height="15.0" fill="rgb(213,39,9)" rx="2" ry="2" />
<text  x="324.11" y="383.5" ></text>
</g>
<g >
<title>[[kernel.kallsyms]] (223,870 samples, 0.68%)</title><rect x="22.0" y="117" width="8.1" height="15.0" fill="rgb(213,39,9)" rx="2" ry="2" />
<text  x="24.98" y="127.5" ></text>
</g>
<g >
<title>[[kernel.kallsyms]] (33,709 samples, 0.10%)</title><rect x="321.6" y="133" width="1.2" height="15.0" fill="rgb(213,39,9)" rx="2" ry="2" />
<text  x="324.56" y="143.5" ></text>
</g>
<g >
<title>collect_results (85,476 samples, 0.26%)</title><rect x="52.0" y="389" width="3.0" height="15.0" fill="rgb(229,111,26)" rx="2" ry="2" />
<text  x="54.95" y="399.5" ></text>
</g>
<g >
<title>[[kernel.kallsyms]] (331,915 samples, 1.01%)</title><rect x="10.0" y="453" width="12.0" height="15.0" fill="rgb(213,39,9)" rx="2" ry="2" />
<text  x="13.00" y="463.5" ></text>
</g>
<g >
<title>[[kernel.kallsyms]] (433,732 samples, 1.33%)</title><rect x="169.8" y="117" width="15.6" height="15.0" fill="rgb(213,39,9)" rx="2" ry="2" />
<text  x="172.79" y="127.5" ></text>
</g>
<g >
<title>[[kernel.kallsyms]] (46,004 samples, 0.14%)</title><rect x="321.1" y="341" width="1.7" height="15.0" fill="rgb(213,39,9)" rx="2" ry="2" />
<text  x="324.11" y="351.5" ></text>
</g>
<g >
<title>[[kernel.kallsyms]] (103,291 samples, 0.32%)</title><rect x="189.2" y="293" width="3.7" height="15.0" fill="rgb(213,39,9)" rx="2" ry="2" />
<text  x="192.18" y="303.5" ></text>
</g>
<g >
<title>[[kernel.kallsyms]] (433,732 samples, 1.33%)</title><rect x="169.8" y="181" width="15.6" height="15.0" fill="rgb(213,39,9)" rx="2" ry="2" />
<text  x="172.79" y="191.5" ></text>
</g>
<g >
<title>clone (3,833 samples, 0.01%)</title><rect x="185.4" y="437" width="0.2" height="15.0" fill="rgb(246,189,45)" rx="2" ry="2" />
<text  x="188.44" y="447.5" ></text>
</g>
<g >
<title>[[kernel.kallsyms]] (223,870 samples, 0.68%)</title><rect x="22.0" y="213" width="8.1" height="15.0" fill="rgb(213,39,9)" rx="2" ry="2" />
<text  x="24.98" y="223.5" ></text>
</g>
<g >
<title>[[kernel.kallsyms]] (103,291 samples, 0.32%)</title><rect x="189.2" y="373" width="3.7" height="15.0" fill="rgb(213,39,9)" rx="2" ry="2" />
<text  x="192.18" y="383.5" ></text>
</g>
<g >
<title>[[kernel.kallsyms]] (85,476 samples, 0.26%)</title><rect x="52.0" y="293" width="3.0" height="15.0" fill="rgb(213,39,9)" rx="2" ry="2" />
<text  x="54.95" y="303.5" ></text>
</g>
<g >
<title>[[kernel.kallsyms]] (433,732 samples, 1.33%)</title><rect x="169.8" y="53" width="15.6" height="15.0" fill="rgb(213,39,9)" rx="2" ry="2" />
<text  x="172.79" y="63.5" ></text>
</g>
<g >
<title>[[kernel.kallsyms]] (79,178 samples, 0.24%)</title><rect x="185.6" y="421" width="2.8" height="15.0" fill="rgb(213,39,9)" rx="2" ry="2" />
<text  x="188.58" y="431.5" ></text>
</g>
<g >
<title>create_thread (3,833 samples, 0.01%)</title><rect x="185.4" y="453" width="0.2" height="15.0" fill="rgb(210,24,5)" rx="2" ry="2" />
<text  x="188.44" y="463.5" ></text>
</g>
<g >
<title>__run_exit_handlers (483,961 samples, 1.48%)</title><rect x="22.0" y="389" width="17.4" height="15.0" fill="rgb(216,51,12)" rx="2" ry="2" />
<text  x="24.98" y="399.5" ></text>
</g>
<g >
<title>___pthread_barrier_wait (95,778 samples, 0.29%)</title><rect x="319.3" y="405" width="3.5" height="15.0" fill="rgb(216,51,12)" rx="2" ry="2" />
<text  x="322.32" y="415.5" ></text>
</g>
<g >
<title>_dl_map_segments (433,732 samples, 1.33%)</title><rect x="169.8" y="293" width="15.6" height="15.0" fill="rgb(254,227,54)" rx="2" ry="2" />
<text  x="172.79" y="303.5" ></text>
</g>
<g >
<title>[[kernel.kallsyms]] (331,915 samples, 1.01%)</title><rect x="10.0" y="277" width="12.0" height="15.0" fill="rgb(213,39,9)" rx="2" ry="2" />
<text  x="13.00" y="287.5" ></text>
</g>
<g >
<title>extract_alive_status (719,630 samples, 2.20%)</title><rect x="322.8" y="405" width="25.9" height="15.0" fill="rgb(223,83,19)" rx="2" ry="2" />
<text  x="325.77" y="415.5" >e..</text>
</g>
<g >
<title>[[kernel.kallsyms]] (46,004 samples, 0.14%)</title><rect x="321.1" y="197" width="1.7" height="15.0" fill="rgb(213,39,9)" rx="2" ry="2" />
<text  x="324.11" y="207.5" ></text>
</g>
<g >
<title>[[kernel.kallsyms]] (79,178 samples, 0.24%)</title><rect x="185.6" y="389" width="2.8" height="15.0" fill="rgb(213,39,9)" rx="2" ry="2" />
<text  x="188.58" y="399.5" ></text>
</g>
<g >
<title>[[kernel.kallsyms]] (79,178 samples, 0.24%)</title><rect x="185.6" y="357" width="2.8" height="15.0" fill="rgb(213,39,9)" rx="2" ry="2" />
<text  x="188.58" y="367.5" ></text>
</g>
<g >
<title>[[kernel.kallsyms]] (331,915 samples, 1.01%)</title><rect x="10.0" y="325" width="12.0" height="15.0" fill="rgb(213,39,9)" rx="2" ry="2" />
<text  x="13.00" y="335.5" ></text>
</g>
<g >
<title>[[kernel.kallsyms]] (260,091 samples, 0.80%)</title><rect x="30.1" y="181" width="9.3" height="15.0" fill="rgb(213,39,9)" rx="2" ry="2" />
<text  x="33.05" y="191.5" ></text>
</g>
<g >
<title>[[kernel.kallsyms]] (85,476 samples, 0.26%)</title><rect x="52.0" y="245" width="3.0" height="15.0" fill="rgb(213,39,9)" rx="2" ry="2" />
<text  x="54.95" y="255.5" ></text>
</g>
<g >
<title>[[kernel.kallsyms]] (260,091 samples, 0.80%)</title><rect x="30.1" y="197" width="9.3" height="15.0" fill="rgb(213,39,9)" rx="2" ry="2" />
<text  x="33.05" y="207.5" ></text>
</g>
<g >
<title>[[kernel.kallsyms]] (49,774 samples, 0.15%)</title><rect x="319.3" y="357" width="1.8" height="15.0" fill="rgb(213,39,9)" rx="2" ry="2" />
<text  x="322.32" y="367.5" ></text>
</g>
<g >
<title>[[kernel.kallsyms]] (331,915 samples, 1.01%)</title><rect x="10.0" y="245" width="12.0" height="15.0" fill="rgb(213,39,9)" rx="2" ry="2" />
<text  x="13.00" y="255.5" ></text>
</g>
<g >
<title>_dl_start (433,732 samples, 1.33%)</title><rect x="169.8" y="437" width="15.6" height="15.0" fill="rgb(237,151,36)" rx="2" ry="2" />
<text  x="172.79" y="447.5" ></text>
</g>
<g >
<title>[[kernel.kallsyms]] (85,476 samples, 0.26%)</title><rect x="52.0" y="229" width="3.0" height="15.0" fill="rgb(213,39,9)" rx="2" ry="2" />
<text  x="54.95" y="239.5" ></text>
</g>
<g >
<title>[[kernel.kallsyms]] (31,575 samples, 0.10%)</title><rect x="53.9" y="213" width="1.1" height="15.0" fill="rgb(213,39,9)" rx="2" ry="2" />
<text  x="56.90" y="223.5" ></text>
</g>
<g >
<title>_dl_sysdep_start (433,732 samples, 1.33%)</title><rect x="169.8" y="405" width="15.6" height="15.0" fill="rgb(234,137,32)" rx="2" ry="2" />
<text  x="172.79" y="415.5" ></text>
</g>
<g >
<title>[[kernel.kallsyms]] (12,244 samples, 0.04%)</title><rect x="54.6" y="101" width="0.4" height="15.0" fill="rgb(213,39,9)" rx="2" ry="2" />
<text  x="57.59" y="111.5" ></text>
</g>
<g >
<title>_IO_new_do_write (223,870 samples, 0.68%)</title><rect x="22.0" y="341" width="8.1" height="15.0" fill="rgb(246,192,46)" rx="2" ry="2" />
<text  x="24.98" y="351.5" ></text>
</g>
<g >
<title>__vfprintf_internal (346,759 samples, 1.06%)</title><rect x="39.4" y="373" width="12.6" height="15.0" fill="rgb(232,125,30)" rx="2" ry="2" />
<text  x="42.44" y="383.5" ></text>
</g>
<g >
<title>__aarch64_swp4_rel (1,625,788 samples, 4.97%)</title><rect x="111.1" y="325" width="58.7" height="15.0" fill="rgb(215,48,11)" rx="2" ry="2" />
<text  x="114.12" y="335.5" >__aarc..</text>
</g>
<g >
<title>get_cell (15,201,692 samples, 46.49%)</title><rect x="601.3" y="389" width="548.5" height="15.0" fill="rgb(245,185,44)" rx="2" ry="2" />
<text  x="604.26" y="399.5" >get_cell</text>
</g>
<g >
<title>[[kernel.kallsyms]] (260,091 samples, 0.80%)</title><rect x="30.1" y="309" width="9.3" height="15.0" fill="rgb(213,39,9)" rx="2" ry="2" />
<text  x="33.05" y="319.5" ></text>
</g>
<g >
<title>extract_alive_status_help (1,375,878 samples, 4.21%)</title><rect x="551.6" y="373" width="49.7" height="15.0" fill="rgb(213,41,9)" rx="2" ry="2" />
<text  x="554.62" y="383.5" >extra..</text>
</g>
<g >
<title>[[kernel.kallsyms]] (260,091 samples, 0.80%)</title><rect x="30.1" y="293" width="9.3" height="15.0" fill="rgb(213,39,9)" rx="2" ry="2" />
<text  x="33.05" y="303.5" ></text>
</g>
<g >
<title>rseq_register_current_thread (2,947 samples, 0.01%)</title><rect x="1189.8" y="421" width="0.1" height="15.0" fill="rgb(233,132,31)" rx="2" ry="2" />
<text  x="1192.84" y="431.5" ></text>
</g>
<g >
<title>[[kernel.kallsyms]] (433,732 samples, 1.33%)</title><rect x="169.8" y="165" width="15.6" height="15.0" fill="rgb(213,39,9)" rx="2" ry="2" />
<text  x="172.79" y="175.5" ></text>
</g>
<g >
<title>[[kernel.kallsyms]] (23,669 samples, 0.07%)</title><rect x="320.3" y="165" width="0.8" height="15.0" fill="rgb(213,39,9)" rx="2" ry="2" />
<text  x="323.26" y="175.5" ></text>
</g>
<g >
<title>[[kernel.kallsyms]] (3,833 samples, 0.01%)</title><rect x="185.4" y="405" width="0.2" height="15.0" fill="rgb(213,39,9)" rx="2" ry="2" />
<text  x="188.44" y="415.5" ></text>
</g>
<g >
<title>[[kernel.kallsyms]] (260,091 samples, 0.80%)</title><rect x="30.1" y="341" width="9.3" height="15.0" fill="rgb(213,39,9)" rx="2" ry="2" />
<text  x="33.05" y="351.5" ></text>
</g>
<g >
<title>[[kernel.kallsyms]] (433,732 samples, 1.33%)</title><rect x="169.8" y="213" width="15.6" height="15.0" fill="rgb(213,39,9)" rx="2" ry="2" />
<text  x="172.79" y="223.5" ></text>
</g>
<g >
<title>_dl_catch_exception (433,732 samples, 1.33%)</title><rect x="169.8" y="357" width="15.6" height="15.0" fill="rgb(253,223,53)" rx="2" ry="2" />
<text  x="172.79" y="367.5" ></text>
</g>
<g >
<title>[[kernel.kallsyms]] (8,364 samples, 0.03%)</title><rect x="54.7" y="85" width="0.3" height="15.0" fill="rgb(213,39,9)" rx="2" ry="2" />
<text  x="57.73" y="95.5" ></text>
</g>
<g >
<title>[[kernel.kallsyms]] (433,732 samples, 1.33%)</title><rect x="169.8" y="85" width="15.6" height="15.0" fill="rgb(213,39,9)" rx="2" ry="2" />
<text  x="172.79" y="95.5" ></text>
</g>
<g >
<title>__GI__exit (260,091 samples, 0.80%)</title><rect x="30.1" y="373" width="9.3" height="15.0" fill="rgb(223,84,20)" rx="2" ry="2" />
<text  x="33.05" y="383.5" ></text>
</g>
<g >
<title>[[kernel.kallsyms]] (49,774 samples, 0.15%)</title><rect x="319.3" y="197" width="1.8" height="15.0" fill="rgb(213,39,9)" rx="2" ry="2" />
<text  x="322.32" y="207.5" ></text>
</g>
<g >
<title>[[kernel.kallsyms]] (433,732 samples, 1.33%)</title><rect x="169.8" y="245" width="15.6" height="15.0" fill="rgb(213,39,9)" rx="2" ry="2" />
<text  x="172.79" y="255.5" ></text>
</g>
<g >
<title>_IO_cleanup (223,870 samples, 0.68%)</title><rect x="22.0" y="373" width="8.1" height="15.0" fill="rgb(248,198,47)" rx="2" ry="2" />
<text  x="24.98" y="383.5" ></text>
</g>
<g >
<title>get_cell_alive_status (20,399,538 samples, 62.38%)</title><rect x="413.7" y="405" width="736.1" height="15.0" fill="rgb(233,132,31)" rx="2" ry="2" />
<text  x="416.71" y="415.5" >get_cell_alive_status</text>
</g>
<g >
<title>[[kernel.kallsyms]] (223,870 samples, 0.68%)</title><rect x="22.0" y="165" width="8.1" height="15.0" fill="rgb(213,39,9)" rx="2" ry="2" />
<text  x="24.98" y="175.5" ></text>
</g>
<g >
<title>extract_alive_status (2,041,363 samples, 6.24%)</title><rect x="527.6" y="389" width="73.7" height="15.0" fill="rgb(223,83,19)" rx="2" ry="2" />
<text  x="530.60" y="399.5" >extract_..</text>
</g>
<g >
<title>[[kernel.kallsyms]] (46,004 samples, 0.14%)</title><rect x="321.1" y="309" width="1.7" height="15.0" fill="rgb(213,39,9)" rx="2" ry="2" />
<text  x="324.11" y="319.5" ></text>
</g>
<g >
<title>[[kernel.kallsyms]] (46,004 samples, 0.14%)</title><rect x="321.1" y="261" width="1.7" height="15.0" fill="rgb(213,39,9)" rx="2" ry="2" />
<text  x="324.11" y="271.5" ></text>
</g>
<g >
<title>__GI_madvise (103,291 samples, 0.32%)</title><rect x="189.2" y="405" width="3.7" height="15.0" fill="rgb(229,113,27)" rx="2" ry="2" />
<text  x="192.18" y="415.5" ></text>
</g>
<g >
<title>[[kernel.kallsyms]] (433,732 samples, 1.33%)</title><rect x="169.8" y="101" width="15.6" height="15.0" fill="rgb(213,39,9)" rx="2" ry="2" />
<text  x="172.79" y="111.5" ></text>
</g>
<g >
<title>get_row (3,180,144 samples, 9.72%)</title><rect x="55.0" y="373" width="114.8" height="15.0" fill="rgb(210,25,6)" rx="2" ry="2" />
<text  x="58.04" y="383.5" >get_row</text>
</g>
<g >
<title>[[kernel.kallsyms]] (79,178 samples, 0.24%)</title><rect x="185.6" y="373" width="2.8" height="15.0" fill="rgb(213,39,9)" rx="2" ry="2" />
<text  x="188.58" y="383.5" ></text>
</g>
<g >
<title>[[kernel.kallsyms]] (12,244 samples, 0.04%)</title><rect x="54.6" y="133" width="0.4" height="15.0" fill="rgb(213,39,9)" rx="2" ry="2" />
<text  x="57.59" y="143.5" ></text>
</g>
<g >
<title>__libc_start_main_impl (4,096,340 samples, 12.53%)</title><rect x="22.0" y="437" width="147.8" height="15.0" fill="rgb(218,63,15)" rx="2" ry="2" />
<text  x="24.98" y="447.5" >__libc_start_main_..</text>
</g>
<g >
<title>futex_wait_simple (49,774 samples, 0.15%)</title><rect x="319.3" y="389" width="1.8" height="15.0" fill="rgb(222,80,19)" rx="2" ry="2" />
<text  x="322.32" y="399.5" ></text>
</g>
<g >
<title>[[kernel.kallsyms]] (433,732 samples, 1.33%)</title><rect x="169.8" y="133" width="15.6" height="15.0" fill="rgb(213,39,9)" rx="2" ry="2" />
<text  x="172.79" y="143.5" ></text>
</g>
<g >
<title>[[kernel.kallsyms]] (223,870 samples, 0.68%)</title><rect x="22.0" y="181" width="8.1" height="15.0" fill="rgb(213,39,9)" rx="2" ry="2" />
<text  x="24.98" y="191.5" ></text>
</g>
<g >
<title>get_bitmap (6,792,646 samples, 20.77%)</title><rect x="872.7" y="373" width="245.1" height="15.0" fill="rgb(217,58,14)" rx="2" ry="2" />
<text  x="875.73" y="383.5" >get_bitmap</text>
</g>
<g >
<title>[[kernel.kallsyms]] (331,915 samples, 1.01%)</title><rect x="10.0" y="437" width="12.0" height="15.0" fill="rgb(213,39,9)" rx="2" ry="2" />
<text  x="13.00" y="447.5" ></text>
</g>
<g >
<title>[[kernel.kallsyms]] (223,870 samples, 0.68%)</title><rect x="22.0" y="69" width="8.1" height="15.0" fill="rgb(213,39,9)" rx="2" ry="2" />
<text  x="24.98" y="79.5" ></text>
</g>
<g >
<title>strchrnul (123,857 samples, 0.38%)</title><rect x="47.5" y="341" width="4.5" height="15.0" fill="rgb(223,82,19)" rx="2" ry="2" />
<text  x="50.48" y="351.5" ></text>
</g>
<g >
<title>[[kernel.kallsyms]] (46,004 samples, 0.14%)</title><rect x="321.1" y="245" width="1.7" height="15.0" fill="rgb(213,39,9)" rx="2" ry="2" />
<text  x="324.11" y="255.5" ></text>
</g>
<g >
<title>[[kernel.kallsyms]] (49,774 samples, 0.15%)</title><rect x="319.3" y="325" width="1.8" height="15.0" fill="rgb(213,39,9)" rx="2" ry="2" />
<text  x="322.32" y="335.5" ></text>
</g>
<g >
<title>[[kernel.kallsyms]] (79,178 samples, 0.24%)</title><rect x="185.6" y="405" width="2.8" height="15.0" fill="rgb(213,39,9)" rx="2" ry="2" />
<text  x="188.58" y="415.5" ></text>
</g>
<g >
<title>[[kernel.kallsyms]] (223,870 samples, 0.68%)</title><rect x="22.0" y="245" width="8.1" height="15.0" fill="rgb(213,39,9)" rx="2" ry="2" />
<text  x="24.98" y="255.5" ></text>
</g>
<g >
<title>openaux (433,732 samples, 1.33%)</title><rect x="169.8" y="341" width="15.6" height="15.0" fill="rgb(252,217,52)" rx="2" ry="2" />
<text  x="172.79" y="351.5" ></text>
</g>
<g >
<title>__GI_mprotect (433,732 samples, 1.33%)</title><rect x="169.8" y="277" width="15.6" height="15.0" fill="rgb(220,71,17)" rx="2" ry="2" />
<text  x="172.79" y="287.5" ></text>
</g>
<g >
<title>[[kernel.kallsyms]] (260,091 samples, 0.80%)</title><rect x="30.1" y="229" width="9.3" height="15.0" fill="rgb(213,39,9)" rx="2" ry="2" />
<text  x="33.05" y="239.5" ></text>
</g>
<g >
<title>[[kernel.kallsyms]] (103,291 samples, 0.32%)</title><rect x="189.2" y="309" width="3.7" height="15.0" fill="rgb(213,39,9)" rx="2" ry="2" />
<text  x="192.18" y="319.5" ></text>
</g>
<g >
<title>[[kernel.kallsyms]] (103,291 samples, 0.32%)</title><rect x="189.2" y="341" width="3.7" height="15.0" fill="rgb(213,39,9)" rx="2" ry="2" />
<text  x="192.18" y="351.5" ></text>
</g>
<g >
<title>[[kernel.kallsyms]] (49,774 samples, 0.15%)</title><rect x="319.3" y="261" width="1.8" height="15.0" fill="rgb(213,39,9)" rx="2" ry="2" />
<text  x="322.32" y="271.5" ></text>
</g>
<g >
<title>[[kernel.kallsyms]] (49,774 samples, 0.15%)</title><rect x="319.3" y="277" width="1.8" height="15.0" fill="rgb(213,39,9)" rx="2" ry="2" />
<text  x="322.32" y="287.5" ></text>
</g>
</g>
</svg>
