<?xml version="1.0" standalone="no"?>
<!DOCTYPE svg PUBLIC "-//W3C//DTD SVG 1.1//EN" "http://www.w3.org/Graphics/SVG/1.1/DTD/svg11.dtd">
<svg version="1.1" width="1200" height="550" onload="init(evt)" viewBox="0 0 1200 550" xmlns="http://www.w3.org/2000/svg" xmlns:xlink="http://www.w3.org/1999/xlink">
<!-- Flame graph stack visualization. See https://github.com/brendangregg/FlameGraph for latest version, and http://www.brendangregg.com/flamegraphs.html for examples. -->
<!-- NOTES:  -->
<defs>
	<linearGradient id="background" y1="0" y2="1" x1="0" x2="0" >
		<stop stop-color="#eeeeee" offset="5%" />
		<stop stop-color="#eeeeb0" offset="95%" />
	</linearGradient>
</defs>
<style type="text/css">
	text { font-family:Verdana; font-size:12px; fill:rgb(0,0,0); }
	#search, #ignorecase { opacity:0.1; cursor:pointer; }
	#search:hover, #search.show, #ignorecase:hover, #ignorecase.show { opacity:1; }
	#subtitle { text-anchor:middle; font-color:rgb(160,160,160); }
	#title { text-anchor:middle; font-size:17px}
	#unzoom { cursor:pointer; }
	#frames > *:hover { stroke:black; stroke-width:0.5; cursor:pointer; }
	.hide { display:none; }
	.parent { opacity:0.5; }
</style>
<script type="text/ecmascript">
<![CDATA[
	"use strict";
	var details, searchbtn, unzoombtn, matchedtxt, svg, searching, currentSearchTerm, ignorecase, ignorecaseBtn;
	function init(evt) {
		details = document.getElementById("details").firstChild;
		searchbtn = document.getElementById("search");
		ignorecaseBtn = document.getElementById("ignorecase");
		unzoombtn = document.getElementById("unzoom");
		matchedtxt = document.getElementById("matched");
		svg = document.getElementsByTagName("svg")[0];
		searching = 0;
		currentSearchTerm = null;

		// use GET parameters to restore a flamegraphs state.
		var params = get_params();
		if (params.x && params.y)
			zoom(find_group(document.querySelector('[x="' + params.x + '"][y="' + params.y + '"]')));
                if (params.s) search(params.s);
	}

	// event listeners
	window.addEventListener("click", function(e) {
		var target = find_group(e.target);
		if (target) {
			if (target.nodeName == "a") {
				if (e.ctrlKey === false) return;
				e.preventDefault();
			}
			if (target.classList.contains("parent")) unzoom(true);
			zoom(target);
			if (!document.querySelector('.parent')) {
				// we have basically done a clearzoom so clear the url
				var params = get_params();
				if (params.x) delete params.x;
				if (params.y) delete params.y;
				history.replaceState(null, null, parse_params(params));
				unzoombtn.classList.add("hide");
				return;
			}

			// set parameters for zoom state
			var el = target.querySelector("rect");
			if (el && el.attributes && el.attributes.y && el.attributes._orig_x) {
				var params = get_params()
				params.x = el.attributes._orig_x.value;
				params.y = el.attributes.y.value;
				history.replaceState(null, null, parse_params(params));
			}
		}
		else if (e.target.id == "unzoom") clearzoom();
		else if (e.target.id == "search") search_prompt();
		else if (e.target.id == "ignorecase") toggle_ignorecase();
	}, false)

	// mouse-over for info
	// show
	window.addEventListener("mouseover", function(e) {
		var target = find_group(e.target);
		if (target) details.nodeValue = "Function: " + g_to_text(target);
	}, false)

	// clear
	window.addEventListener("mouseout", function(e) {
		var target = find_group(e.target);
		if (target) details.nodeValue = ' ';
	}, false)

	// ctrl-F for search
	// ctrl-I to toggle case-sensitive search
	window.addEventListener("keydown",function (e) {
		if (e.keyCode === 114 || (e.ctrlKey && e.keyCode === 70)) {
			e.preventDefault();
			search_prompt();
		}
		else if (e.ctrlKey && e.keyCode === 73) {
			e.preventDefault();
			toggle_ignorecase();
		}
	}, false)

	// functions
	function get_params() {
		var params = {};
		var paramsarr = window.location.search.substr(1).split('&');
		for (var i = 0; i < paramsarr.length; ++i) {
			var tmp = paramsarr[i].split("=");
			if (!tmp[0] || !tmp[1]) continue;
			params[tmp[0]]  = decodeURIComponent(tmp[1]);
		}
		return params;
	}
	function parse_params(params) {
		var uri = "?";
		for (var key in params) {
			uri += key + '=' + encodeURIComponent(params[key]) + '&';
		}
		if (uri.slice(-1) == "&")
			uri = uri.substring(0, uri.length - 1);
		if (uri == '?')
			uri = window.location.href.split('?')[0];
		return uri;
	}
	function find_child(node, selector) {
		var children = node.querySelectorAll(selector);
		if (children.length) return children[0];
	}
	function find_group(node) {
		var parent = node.parentElement;
		if (!parent) return;
		if (parent.id == "frames") return node;
		return find_group(parent);
	}
	function orig_save(e, attr, val) {
		if (e.attributes["_orig_" + attr] != undefined) return;
		if (e.attributes[attr] == undefined) return;
		if (val == undefined) val = e.attributes[attr].value;
		e.setAttribute("_orig_" + attr, val);
	}
	function orig_load(e, attr) {
		if (e.attributes["_orig_"+attr] == undefined) return;
		e.attributes[attr].value = e.attributes["_orig_" + attr].value;
		e.removeAttribute("_orig_"+attr);
	}
	function g_to_text(e) {
		var text = find_child(e, "title").firstChild.nodeValue;
		return (text)
	}
	function g_to_func(e) {
		var func = g_to_text(e);
		// if there's any manipulation we want to do to the function
		// name before it's searched, do it here before returning.
		return (func);
	}
	function update_text(e) {
		var r = find_child(e, "rect");
		var t = find_child(e, "text");
		var w = parseFloat(r.attributes.width.value) -3;
		var txt = find_child(e, "title").textContent.replace(/\([^(]*\)$/,"");
		t.attributes.x.value = parseFloat(r.attributes.x.value) + 3;

		// Smaller than this size won't fit anything
		if (w < 2 * 12 * 0.59) {
			t.textContent = "";
			return;
		}

		t.textContent = txt;
		var sl = t.getSubStringLength(0, txt.length);
		// check if only whitespace or if we can fit the entire string into width w
		if (/^ *$/.test(txt) || sl < w)
			return;

		// this isn't perfect, but gives a good starting point
		// and avoids calling getSubStringLength too often
		var start = Math.floor((w/sl) * txt.length);
		for (var x = start; x > 0; x = x-2) {
			if (t.getSubStringLength(0, x + 2) <= w) {
				t.textContent = txt.substring(0, x) + "..";
				return;
			}
		}
		t.textContent = "";
	}

	// zoom
	function zoom_reset(e) {
		if (e.attributes != undefined) {
			orig_load(e, "x");
			orig_load(e, "width");
		}
		if (e.childNodes == undefined) return;
		for (var i = 0, c = e.childNodes; i < c.length; i++) {
			zoom_reset(c[i]);
		}
	}
	function zoom_child(e, x, ratio) {
		if (e.attributes != undefined) {
			if (e.attributes.x != undefined) {
				orig_save(e, "x");
				e.attributes.x.value = (parseFloat(e.attributes.x.value) - x - 10) * ratio + 10;
				if (e.tagName == "text")
					e.attributes.x.value = find_child(e.parentNode, "rect[x]").attributes.x.value + 3;
			}
			if (e.attributes.width != undefined) {
				orig_save(e, "width");
				e.attributes.width.value = parseFloat(e.attributes.width.value) * ratio;
			}
		}

		if (e.childNodes == undefined) return;
		for (var i = 0, c = e.childNodes; i < c.length; i++) {
			zoom_child(c[i], x - 10, ratio);
		}
	}
	function zoom_parent(e) {
		if (e.attributes) {
			if (e.attributes.x != undefined) {
				orig_save(e, "x");
				e.attributes.x.value = 10;
			}
			if (e.attributes.width != undefined) {
				orig_save(e, "width");
				e.attributes.width.value = parseInt(svg.width.baseVal.value) - (10 * 2);
			}
		}
		if (e.childNodes == undefined) return;
		for (var i = 0, c = e.childNodes; i < c.length; i++) {
			zoom_parent(c[i]);
		}
	}
	function zoom(node) {
		var attr = find_child(node, "rect").attributes;
		var width = parseFloat(attr.width.value);
		var xmin = parseFloat(attr.x.value);
		var xmax = parseFloat(xmin + width);
		var ymin = parseFloat(attr.y.value);
		var ratio = (svg.width.baseVal.value - 2 * 10) / width;

		// XXX: Workaround for JavaScript float issues (fix me)
		var fudge = 0.0001;

		unzoombtn.classList.remove("hide");

		var el = document.getElementById("frames").children;
		for (var i = 0; i < el.length; i++) {
			var e = el[i];
			var a = find_child(e, "rect").attributes;
			var ex = parseFloat(a.x.value);
			var ew = parseFloat(a.width.value);
			var upstack;
			// Is it an ancestor
			if (0 == 0) {
				upstack = parseFloat(a.y.value) > ymin;
			} else {
				upstack = parseFloat(a.y.value) < ymin;
			}
			if (upstack) {
				// Direct ancestor
				if (ex <= xmin && (ex+ew+fudge) >= xmax) {
					e.classList.add("parent");
					zoom_parent(e);
					update_text(e);
				}
				// not in current path
				else
					e.classList.add("hide");
			}
			// Children maybe
			else {
				// no common path
				if (ex < xmin || ex + fudge >= xmax) {
					e.classList.add("hide");
				}
				else {
					zoom_child(e, xmin, ratio);
					update_text(e);
				}
			}
		}
		search();
	}
	function unzoom(dont_update_text) {
		unzoombtn.classList.add("hide");
		var el = document.getElementById("frames").children;
		for(var i = 0; i < el.length; i++) {
			el[i].classList.remove("parent");
			el[i].classList.remove("hide");
			zoom_reset(el[i]);
			if(!dont_update_text) update_text(el[i]);
		}
		search();
	}
	function clearzoom() {
		unzoom();

		// remove zoom state
		var params = get_params();
		if (params.x) delete params.x;
		if (params.y) delete params.y;
		history.replaceState(null, null, parse_params(params));
	}

	// search
	function toggle_ignorecase() {
		ignorecase = !ignorecase;
		if (ignorecase) {
			ignorecaseBtn.classList.add("show");
		} else {
			ignorecaseBtn.classList.remove("show");
		}
		reset_search();
		search();
	}
	function reset_search() {
		var el = document.querySelectorAll("#frames rect");
		for (var i = 0; i < el.length; i++) {
			orig_load(el[i], "fill")
		}
		var params = get_params();
		delete params.s;
		history.replaceState(null, null, parse_params(params));
	}
	function search_prompt() {
		if (!searching) {
			var term = prompt("Enter a search term (regexp " +
			    "allowed, eg: ^ext4_)"
			    + (ignorecase ? ", ignoring case" : "")
			    + "\nPress Ctrl-i to toggle case sensitivity", "");
			if (term != null) search(term);
		} else {
			reset_search();
			searching = 0;
			currentSearchTerm = null;
			searchbtn.classList.remove("show");
			searchbtn.firstChild.nodeValue = "Search"
			matchedtxt.classList.add("hide");
			matchedtxt.firstChild.nodeValue = ""
		}
	}
	function search(term) {
		if (term) currentSearchTerm = term;

		var re = new RegExp(currentSearchTerm, ignorecase ? 'i' : '');
		var el = document.getElementById("frames").children;
		var matches = new Object();
		var maxwidth = 0;
		for (var i = 0; i < el.length; i++) {
			var e = el[i];
			var func = g_to_func(e);
			var rect = find_child(e, "rect");
			if (func == null || rect == null)
				continue;

			// Save max width. Only works as we have a root frame
			var w = parseFloat(rect.attributes.width.value);
			if (w > maxwidth)
				maxwidth = w;

			if (func.match(re)) {
				// highlight
				var x = parseFloat(rect.attributes.x.value);
				orig_save(rect, "fill");
				rect.attributes.fill.value = "rgb(230,0,230)";

				// remember matches
				if (matches[x] == undefined) {
					matches[x] = w;
				} else {
					if (w > matches[x]) {
						// overwrite with parent
						matches[x] = w;
					}
				}
				searching = 1;
			}
		}
		if (!searching)
			return;
		var params = get_params();
		params.s = currentSearchTerm;
		history.replaceState(null, null, parse_params(params));

		searchbtn.classList.add("show");
		searchbtn.firstChild.nodeValue = "Reset Search";

		// calculate percent matched, excluding vertical overlap
		var count = 0;
		var lastx = -1;
		var lastw = 0;
		var keys = Array();
		for (k in matches) {
			if (matches.hasOwnProperty(k))
				keys.push(k);
		}
		// sort the matched frames by their x location
		// ascending, then width descending
		keys.sort(function(a, b){
			return a - b;
		});
		// Step through frames saving only the biggest bottom-up frames
		// thanks to the sort order. This relies on the tree property
		// where children are always smaller than their parents.
		var fudge = 0.0001;	// JavaScript floating point
		for (var k in keys) {
			var x = parseFloat(keys[k]);
			var w = matches[keys[k]];
			if (x >= lastx + lastw - fudge) {
				count += w;
				lastx = x;
				lastw = w;
			}
		}
		// display matched percent
		matchedtxt.classList.remove("hide");
		var pct = 100 * count / maxwidth;
		if (pct != 100) pct = pct.toFixed(1)
		matchedtxt.firstChild.nodeValue = "Matched: " + pct + "%";
	}
]]>
</script>
<rect x="0.0" y="0" width="1200.0" height="550.0" fill="url(#background)"  />
<text id="title" x="600.00" y="24" >Flame Graph</text>
<text id="details" x="10.00" y="533" > </text>
<text id="unzoom" x="10.00" y="24" class="hide">Reset Zoom</text>
<text id="search" x="1090.00" y="24" >Search</text>
<text id="ignorecase" x="1174.00" y="24" >ic</text>
<text id="matched" x="1090.00" y="533" > </text>
<g id="frames">
<g >
<title>get_row (1,499,650 samples, 4.45%)</title><rect x="117.3" y="389" width="52.5" height="15.0" fill="rgb(210,25,6)" rx="2" ry="2" />
<text  x="120.31" y="399.5" >get_row</text>
</g>
<g >
<title>cgol (33,706,747 samples, 100.00%)</title><rect x="10.0" y="485" width="1180.0" height="15.0" fill="rgb(243,179,42)" rx="2" ry="2" />
<text  x="13.00" y="495.5" >cgol</text>
</g>
<g >
<title>[[kernel.kallsyms]] (823,335 samples, 2.44%)</title><rect x="184.5" y="389" width="28.9" height="15.0" fill="rgb(213,39,9)" rx="2" ry="2" />
<text  x="187.53" y="399.5" >[[..</text>
</g>
<g >
<title>[[kernel.kallsyms]] (10,195 samples, 0.03%)</title><rect x="266.8" y="293" width="0.4" height="15.0" fill="rgb(213,39,9)" rx="2" ry="2" />
<text  x="269.81" y="303.5" ></text>
</g>
<g >
<title>_start (4,956,532 samples, 14.70%)</title><rect x="10.8" y="469" width="173.5" height="15.0" fill="rgb(245,185,44)" rx="2" ry="2" />
<text  x="13.82" y="479.5" >_start</text>
</g>
<g >
<title>__GI__IO_doallocbuf (1,461,547 samples, 4.34%)</title><rect x="10.8" y="293" width="51.2" height="15.0" fill="rgb(243,177,42)" rx="2" ry="2" />
<text  x="13.82" y="303.5" >__GI_..</text>
</g>
<g >
<title>[[kernel.kallsyms]] (823,335 samples, 2.44%)</title><rect x="184.5" y="293" width="28.9" height="15.0" fill="rgb(213,39,9)" rx="2" ry="2" />
<text  x="187.53" y="303.5" >[[..</text>
</g>
<g >
<title>[[kernel.kallsyms]] (3,554 samples, 0.01%)</title><rect x="184.4" y="373" width="0.1" height="15.0" fill="rgb(213,39,9)" rx="2" ry="2" />
<text  x="187.41" y="383.5" ></text>
</g>
<g >
<title>[[kernel.kallsyms]] (9,187 samples, 0.03%)</title><rect x="266.5" y="389" width="0.3" height="15.0" fill="rgb(213,39,9)" rx="2" ry="2" />
<text  x="269.49" y="399.5" ></text>
</g>
<g >
<title>[[kernel.kallsyms]] (414,893 samples, 1.23%)</title><rect x="169.8" y="85" width="14.5" height="15.0" fill="rgb(213,39,9)" rx="2" ry="2" />
<text  x="172.80" y="95.5" ></text>
</g>
<g >
<title>__vfprintf_internal (1,461,547 samples, 4.34%)</title><rect x="10.8" y="389" width="51.2" height="15.0" fill="rgb(232,125,30)" rx="2" ry="2" />
<text  x="13.82" y="399.5" >__vfp..</text>
</g>
<g >
<title>[[kernel.kallsyms]] (9,187 samples, 0.03%)</title><rect x="266.5" y="213" width="0.3" height="15.0" fill="rgb(213,39,9)" rx="2" ry="2" />
<text  x="269.49" y="223.5" ></text>
</g>
<g >
<title>[[kernel.kallsyms]] (1,461,547 samples, 4.34%)</title><rect x="10.8" y="85" width="51.2" height="15.0" fill="rgb(213,39,9)" rx="2" ry="2" />
<text  x="13.82" y="95.5" >[[ker..</text>
</g>
<g >
<title>[[kernel.kallsyms]] (23,376 samples, 0.07%)</title><rect x="10.0" y="293" width="0.8" height="15.0" fill="rgb(213,39,9)" rx="2" ry="2" />
<text  x="13.00" y="303.5" ></text>
</g>
<g >
<title>___pthread_barrier_wait (24,774 samples, 0.07%)</title><rect x="265.9" y="421" width="0.9" height="15.0" fill="rgb(216,51,12)" rx="2" ry="2" />
<text  x="268.95" y="431.5" ></text>
</g>
<g >
<title>__GI___fstatat64 (1,461,547 samples, 4.34%)</title><rect x="10.8" y="261" width="51.2" height="15.0" fill="rgb(227,101,24)" rx="2" ry="2" />
<text  x="13.82" y="271.5" >__GI_..</text>
</g>
<g >
<title>get_cell_alive_status_and_propagate (15,870,632 samples, 47.08%)</title><rect x="475.3" y="421" width="555.5" height="15.0" fill="rgb(252,218,52)" rx="2" ry="2" />
<text  x="478.25" y="431.5" >get_cell_alive_status_and_propagate</text>
</g>
<g >
<title>set_cell (8,482,213 samples, 25.16%)</title><rect x="733.9" y="405" width="296.9" height="15.0" fill="rgb(217,59,14)" rx="2" ry="2" />
<text  x="736.89" y="415.5" >set_cell</text>
</g>
<g >
<title>_IO_new_file_xsputn (1,461,547 samples, 4.34%)</title><rect x="10.8" y="357" width="51.2" height="15.0" fill="rgb(250,209,50)" rx="2" ry="2" />
<text  x="13.82" y="367.5" >_IO_n..</text>
</g>
<g >
<title>[[kernel.kallsyms]] (1,461,547 samples, 4.34%)</title><rect x="10.8" y="213" width="51.2" height="15.0" fill="rgb(213,39,9)" rx="2" ry="2" />
<text  x="13.82" y="223.5" >[[ker..</text>
</g>
<g >
<title>[[kernel.kallsyms]] (23,376 samples, 0.07%)</title><rect x="10.0" y="437" width="0.8" height="15.0" fill="rgb(213,39,9)" rx="2" ry="2" />
<text  x="13.00" y="447.5" ></text>
</g>
<g >
<title>__GI__IO_file_doallocate (1,461,547 samples, 4.34%)</title><rect x="10.8" y="277" width="51.2" height="15.0" fill="rgb(212,32,7)" rx="2" ry="2" />
<text  x="13.82" y="287.5" >__GI_..</text>
</g>
<g >
<title>__mmap64 (414,893 samples, 1.23%)</title><rect x="169.8" y="261" width="14.5" height="15.0" fill="rgb(243,175,41)" rx="2" ry="2" />
<text  x="172.80" y="271.5" ></text>
</g>
<g >
<title>[[kernel.kallsyms]] (414,893 samples, 1.23%)</title><rect x="169.8" y="213" width="14.5" height="15.0" fill="rgb(213,39,9)" rx="2" ry="2" />
<text  x="172.80" y="223.5" ></text>
</g>
<g >
<title>[[kernel.kallsyms]] (23,376 samples, 0.07%)</title><rect x="10.0" y="309" width="0.8" height="15.0" fill="rgb(213,39,9)" rx="2" ry="2" />
<text  x="13.00" y="319.5" ></text>
</g>
<g >
<title>[[kernel.kallsyms]] (823,335 samples, 2.44%)</title><rect x="184.5" y="373" width="28.9" height="15.0" fill="rgb(213,39,9)" rx="2" ry="2" />
<text  x="187.53" y="383.5" >[[..</text>
</g>
<g >
<title>[[kernel.kallsyms]] (9,187 samples, 0.03%)</title><rect x="266.5" y="309" width="0.3" height="15.0" fill="rgb(213,39,9)" rx="2" ry="2" />
<text  x="269.49" y="319.5" ></text>
</g>
<g >
<title>[[kernel.kallsyms]] (9,187 samples, 0.03%)</title><rect x="266.5" y="165" width="0.3" height="15.0" fill="rgb(213,39,9)" rx="2" ry="2" />
<text  x="269.49" y="175.5" ></text>
</g>
<g >
<title>get_row_idx (637,487 samples, 1.89%)</title><rect x="933.0" y="389" width="22.3" height="15.0" fill="rgb(247,194,46)" rx="2" ry="2" />
<text  x="936.02" y="399.5" >g..</text>
</g>
<g >
<title>[[kernel.kallsyms]] (10,195 samples, 0.03%)</title><rect x="266.8" y="389" width="0.4" height="15.0" fill="rgb(213,39,9)" rx="2" ry="2" />
<text  x="269.81" y="399.5" ></text>
</g>
<g >
<title>[[kernel.kallsyms]] (23,376 samples, 0.07%)</title><rect x="10.0" y="373" width="0.8" height="15.0" fill="rgb(213,39,9)" rx="2" ry="2" />
<text  x="13.00" y="383.5" ></text>
</g>
<g >
<title>[[kernel.kallsyms]] (9,187 samples, 0.03%)</title><rect x="266.5" y="373" width="0.3" height="15.0" fill="rgb(213,39,9)" rx="2" ry="2" />
<text  x="269.49" y="383.5" ></text>
</g>
<g >
<title>[[kernel.kallsyms]] (15,587 samples, 0.05%)</title><rect x="265.9" y="373" width="0.6" height="15.0" fill="rgb(213,39,9)" rx="2" ry="2" />
<text  x="268.95" y="383.5" ></text>
</g>
<g >
<title>main (4,541,639 samples, 13.47%)</title><rect x="10.8" y="421" width="159.0" height="15.0" fill="rgb(243,179,42)" rx="2" ry="2" />
<text  x="13.82" y="431.5" >main</text>
</g>
<g >
<title>get_cell (3,046,800 samples, 9.04%)</title><rect x="368.6" y="389" width="106.7" height="15.0" fill="rgb(245,185,44)" rx="2" ry="2" />
<text  x="371.59" y="399.5" >get_cell</text>
</g>
<g >
<title>[[kernel.kallsyms]] (414,893 samples, 1.23%)</title><rect x="169.8" y="245" width="14.5" height="15.0" fill="rgb(213,39,9)" rx="2" ry="2" />
<text  x="172.80" y="255.5" ></text>
</g>
<g >
<title>[[kernel.kallsyms]] (823,335 samples, 2.44%)</title><rect x="184.5" y="341" width="28.9" height="15.0" fill="rgb(213,39,9)" rx="2" ry="2" />
<text  x="187.53" y="351.5" >[[..</text>
</g>
<g >
<title>[[kernel.kallsyms]] (414,893 samples, 1.23%)</title><rect x="169.8" y="101" width="14.5" height="15.0" fill="rgb(213,39,9)" rx="2" ry="2" />
<text  x="172.80" y="111.5" ></text>
</g>
<g >
<title>[[kernel.kallsyms]] (9,187 samples, 0.03%)</title><rect x="266.5" y="181" width="0.3" height="15.0" fill="rgb(213,39,9)" rx="2" ry="2" />
<text  x="269.49" y="191.5" ></text>
</g>
<g >
<title>extract_alive_status_help (614,757 samples, 1.82%)</title><rect x="289.8" y="405" width="21.5" height="15.0" fill="rgb(213,41,9)" rx="2" ry="2" />
<text  x="292.80" y="415.5" >e..</text>
</g>
<g >
<title>[[kernel.kallsyms]] (823,335 samples, 2.44%)</title><rect x="184.5" y="437" width="28.9" height="15.0" fill="rgb(213,39,9)" rx="2" ry="2" />
<text  x="187.53" y="447.5" >[[..</text>
</g>
<g >
<title>[[kernel.kallsyms]] (5,870 samples, 0.02%)</title><rect x="184.3" y="421" width="0.2" height="15.0" fill="rgb(213,39,9)" rx="2" ry="2" />
<text  x="187.33" y="431.5" ></text>
</g>
<g >
<title>get_bitmap (3,420,338 samples, 10.15%)</title><rect x="813.3" y="389" width="119.7" height="15.0" fill="rgb(217,58,14)" rx="2" ry="2" />
<text  x="816.29" y="399.5" >get_bitmap</text>
</g>
<g >
<title>extract_alive_status (1,261,231 samples, 3.74%)</title><rect x="267.2" y="421" width="44.1" height="15.0" fill="rgb(223,83,19)" rx="2" ry="2" />
<text  x="270.17" y="431.5" >extr..</text>
</g>
<g >
<title>[[kernel.kallsyms]] (9,187 samples, 0.03%)</title><rect x="266.5" y="277" width="0.3" height="15.0" fill="rgb(213,39,9)" rx="2" ry="2" />
<text  x="269.49" y="287.5" ></text>
</g>
<g >
<title>[[kernel.kallsyms]] (1,461,547 samples, 4.34%)</title><rect x="10.8" y="229" width="51.2" height="15.0" fill="rgb(213,39,9)" rx="2" ry="2" />
<text  x="13.82" y="239.5" >[[ker..</text>
</g>
<g >
<title>[[kernel.kallsyms]] (414,893 samples, 1.23%)</title><rect x="169.8" y="149" width="14.5" height="15.0" fill="rgb(213,39,9)" rx="2" ry="2" />
<text  x="172.80" y="159.5" ></text>
</g>
<g >
<title>clone (5,870 samples, 0.02%)</title><rect x="184.3" y="453" width="0.2" height="15.0" fill="rgb(246,189,45)" rx="2" ry="2" />
<text  x="187.33" y="463.5" ></text>
</g>
<g >
<title>[[kernel.kallsyms]] (1,461,547 samples, 4.34%)</title><rect x="10.8" y="101" width="51.2" height="15.0" fill="rgb(213,39,9)" rx="2" ry="2" />
<text  x="13.82" y="111.5" >[[ker..</text>
</g>
<g >
<title>[[kernel.kallsyms]] (10,195 samples, 0.03%)</title><rect x="266.8" y="325" width="0.4" height="15.0" fill="rgb(213,39,9)" rx="2" ry="2" />
<text  x="269.81" y="335.5" ></text>
</g>
<g >
<title>create_thread (5,870 samples, 0.02%)</title><rect x="184.3" y="469" width="0.2" height="15.0" fill="rgb(210,24,5)" rx="2" ry="2" />
<text  x="187.33" y="479.5" ></text>
</g>
<g >
<title>_IO_new_file_xsputn (1,461,547 samples, 4.34%)</title><rect x="10.8" y="341" width="51.2" height="15.0" fill="rgb(250,209,50)" rx="2" ry="2" />
<text  x="13.82" y="351.5" >_IO_n..</text>
</g>
<g >
<title>[[kernel.kallsyms]] (15,587 samples, 0.05%)</title><rect x="265.9" y="325" width="0.6" height="15.0" fill="rgb(213,39,9)" rx="2" ry="2" />
<text  x="268.95" y="335.5" ></text>
</g>
<g >
<title>__GI__IO_doallocbuf (1,461,547 samples, 4.34%)</title><rect x="10.8" y="309" width="51.2" height="15.0" fill="rgb(243,177,42)" rx="2" ry="2" />
<text  x="13.82" y="319.5" >__GI_..</text>
</g>
<g >
<title>[[kernel.kallsyms]] (9,187 samples, 0.03%)</title><rect x="266.5" y="325" width="0.3" height="15.0" fill="rgb(213,39,9)" rx="2" ry="2" />
<text  x="269.49" y="335.5" ></text>
</g>
<g >
<title>set_cell (3,914,184 samples, 11.61%)</title><rect x="1052.9" y="421" width="137.1" height="15.0" fill="rgb(217,59,14)" rx="2" ry="2" />
<text  x="1055.93" y="431.5" >set_cell</text>
</g>
<g >
<title>[[kernel.kallsyms]] (1,461,547 samples, 4.34%)</title><rect x="10.8" y="149" width="51.2" height="15.0" fill="rgb(213,39,9)" rx="2" ry="2" />
<text  x="13.82" y="159.5" >[[ker..</text>
</g>
<g >
<title>[[kernel.kallsyms]] (823,335 samples, 2.44%)</title><rect x="184.5" y="357" width="28.9" height="15.0" fill="rgb(213,39,9)" rx="2" ry="2" />
<text  x="187.53" y="367.5" >[[..</text>
</g>
<g >
<title>_IO_new_file_overflow (1,461,547 samples, 4.34%)</title><rect x="10.8" y="325" width="51.2" height="15.0" fill="rgb(247,194,46)" rx="2" ry="2" />
<text  x="13.82" y="335.5" >_IO_n..</text>
</g>
<g >
<title>[[kernel.kallsyms]] (1,461,547 samples, 4.34%)</title><rect x="10.8" y="37" width="51.2" height="15.0" fill="rgb(213,39,9)" rx="2" ry="2" />
<text  x="13.82" y="47.5" >[[ker..</text>
</g>
<g >
<title>get_cell (3,197,804 samples, 9.49%)</title><rect x="558.9" y="405" width="111.9" height="15.0" fill="rgb(245,185,44)" rx="2" ry="2" />
<text  x="561.85" y="415.5" >get_cell</text>
</g>
<g >
<title>_dl_catch_exception (414,893 samples, 1.23%)</title><rect x="169.8" y="373" width="14.5" height="15.0" fill="rgb(253,223,53)" rx="2" ry="2" />
<text  x="172.80" y="383.5" ></text>
</g>
<g >
<title>[[kernel.kallsyms]] (23,376 samples, 0.07%)</title><rect x="10.0" y="341" width="0.8" height="15.0" fill="rgb(213,39,9)" rx="2" ry="2" />
<text  x="13.00" y="351.5" ></text>
</g>
<g >
<title>set_bitmap (2,156,362 samples, 6.40%)</title><rect x="955.3" y="389" width="75.5" height="15.0" fill="rgb(240,162,38)" rx="2" ry="2" />
<text  x="958.34" y="399.5" >set_bitmap</text>
</g>
<g >
<title>_dl_map_segments (414,893 samples, 1.23%)</title><rect x="169.8" y="309" width="14.5" height="15.0" fill="rgb(254,227,54)" rx="2" ry="2" />
<text  x="172.80" y="319.5" ></text>
</g>
<g >
<title>_dl_start_final (414,893 samples, 1.23%)</title><rect x="169.8" y="437" width="14.5" height="15.0" fill="rgb(252,216,51)" rx="2" ry="2" />
<text  x="172.80" y="447.5" ></text>
</g>
<g >
<title>[[kernel.kallsyms]] (23,376 samples, 0.07%)</title><rect x="10.0" y="469" width="0.8" height="15.0" fill="rgb(213,39,9)" rx="2" ry="2" />
<text  x="13.00" y="479.5" ></text>
</g>
<g >
<title>__libc_start_main_impl (4,541,639 samples, 13.47%)</title><rect x="10.8" y="453" width="159.0" height="15.0" fill="rgb(218,63,15)" rx="2" ry="2" />
<text  x="13.82" y="463.5" >__libc_start_main_impl</text>
</g>
<g >
<title>[[kernel.kallsyms]] (823,335 samples, 2.44%)</title><rect x="184.5" y="309" width="28.9" height="15.0" fill="rgb(213,39,9)" rx="2" ry="2" />
<text  x="187.53" y="319.5" >[[..</text>
</g>
<g >
<title>[[kernel.kallsyms]] (23,376 samples, 0.07%)</title><rect x="10.0" y="261" width="0.8" height="15.0" fill="rgb(213,39,9)" rx="2" ry="2" />
<text  x="13.00" y="271.5" ></text>
</g>
<g >
<title>[[kernel.kallsyms]] (414,893 samples, 1.23%)</title><rect x="169.8" y="197" width="14.5" height="15.0" fill="rgb(213,39,9)" rx="2" ry="2" />
<text  x="172.80" y="207.5" ></text>
</g>
<g >
<title>[[kernel.kallsyms]] (1,461,547 samples, 4.34%)</title><rect x="10.8" y="117" width="51.2" height="15.0" fill="rgb(213,39,9)" rx="2" ry="2" />
<text  x="13.82" y="127.5" >[[ker..</text>
</g>
<g >
<title>[[kernel.kallsyms]] (414,893 samples, 1.23%)</title><rect x="169.8" y="165" width="14.5" height="15.0" fill="rgb(213,39,9)" rx="2" ry="2" />
<text  x="172.80" y="175.5" ></text>
</g>
<g >
<title>[[kernel.kallsyms]] (823,335 samples, 2.44%)</title><rect x="184.5" y="421" width="28.9" height="15.0" fill="rgb(213,39,9)" rx="2" ry="2" />
<text  x="187.53" y="431.5" >[[..</text>
</g>
<g >
<title>set_alive_status (631,479 samples, 1.87%)</title><rect x="1030.8" y="421" width="22.1" height="15.0" fill="rgb(207,10,2)" rx="2" ry="2" />
<text  x="1033.83" y="431.5" >s..</text>
</g>
<g >
<title>[[kernel.kallsyms]] (23,376 samples, 0.07%)</title><rect x="10.0" y="325" width="0.8" height="15.0" fill="rgb(213,39,9)" rx="2" ry="2" />
<text  x="13.00" y="335.5" ></text>
</g>
<g >
<title>__printf (1,461,547 samples, 4.34%)</title><rect x="10.8" y="405" width="51.2" height="15.0" fill="rgb(229,110,26)" rx="2" ry="2" />
<text  x="13.82" y="415.5" >__pri..</text>
</g>
<g >
<title>_dl_map_object_deps (414,893 samples, 1.23%)</title><rect x="169.8" y="389" width="14.5" height="15.0" fill="rgb(219,68,16)" rx="2" ry="2" />
<text  x="172.80" y="399.5" ></text>
</g>
<g >
<title>[[kernel.kallsyms]] (15,587 samples, 0.05%)</title><rect x="265.9" y="293" width="0.6" height="15.0" fill="rgb(213,39,9)" rx="2" ry="2" />
<text  x="268.95" y="303.5" ></text>
</g>
<g >
<title>__GI___libc_sigaction (10,195 samples, 0.03%)</title><rect x="266.8" y="405" width="0.4" height="15.0" fill="rgb(244,182,43)" rx="2" ry="2" />
<text  x="269.81" y="415.5" ></text>
</g>
<g >
<title>_dl_sysdep_start (414,893 samples, 1.23%)</title><rect x="169.8" y="421" width="14.5" height="15.0" fill="rgb(234,137,32)" rx="2" ry="2" />
<text  x="172.80" y="431.5" ></text>
</g>
<g >
<title>dl_main (414,893 samples, 1.23%)</title><rect x="169.8" y="405" width="14.5" height="15.0" fill="rgb(236,145,34)" rx="2" ry="2" />
<text  x="172.80" y="415.5" ></text>
</g>
<g >
<title>game_loop (27,897,634 samples, 82.76%)</title><rect x="213.4" y="437" width="976.6" height="15.0" fill="rgb(246,188,45)" rx="2" ry="2" />
<text  x="216.36" y="447.5" >game_loop</text>
</g>
<g >
<title>outstring_func (1,461,547 samples, 4.34%)</title><rect x="10.8" y="373" width="51.2" height="15.0" fill="rgb(229,114,27)" rx="2" ry="2" />
<text  x="13.82" y="383.5" >outst..</text>
</g>
<g >
<title>[[kernel.kallsyms]] (1,461,547 samples, 4.34%)</title><rect x="10.8" y="165" width="51.2" height="15.0" fill="rgb(213,39,9)" rx="2" ry="2" />
<text  x="13.82" y="175.5" >[[ker..</text>
</g>
<g >
<title>[[kernel.kallsyms]] (10,195 samples, 0.03%)</title><rect x="266.8" y="309" width="0.4" height="15.0" fill="rgb(213,39,9)" rx="2" ry="2" />
<text  x="269.81" y="319.5" ></text>
</g>
<g >
<title>_dl_start (414,893 samples, 1.23%)</title><rect x="169.8" y="453" width="14.5" height="15.0" fill="rgb(237,151,36)" rx="2" ry="2" />
<text  x="172.80" y="463.5" ></text>
</g>
<g >
<title>[[kernel.kallsyms]] (15,587 samples, 0.05%)</title><rect x="265.9" y="277" width="0.6" height="15.0" fill="rgb(213,39,9)" rx="2" ry="2" />
<text  x="268.95" y="287.5" ></text>
</g>
<g >
<title>[[kernel.kallsyms]] (15,587 samples, 0.05%)</title><rect x="265.9" y="245" width="0.6" height="15.0" fill="rgb(213,39,9)" rx="2" ry="2" />
<text  x="268.95" y="255.5" ></text>
</g>
<g >
<title>cell_shift_amount_in_bitmap (1,166,834 samples, 3.46%)</title><rect x="392.2" y="373" width="40.8" height="15.0" fill="rgb(252,220,52)" rx="2" ry="2" />
<text  x="395.19" y="383.5" >cel..</text>
</g>
<g >
<title>[[kernel.kallsyms]] (23,376 samples, 0.07%)</title><rect x="10.0" y="405" width="0.8" height="15.0" fill="rgb(213,39,9)" rx="2" ry="2" />
<text  x="13.00" y="415.5" ></text>
</g>
<g >
<title>cell_shift_amount_in_bitmap (711,229 samples, 2.11%)</title><rect x="645.9" y="389" width="24.9" height="15.0" fill="rgb(252,220,52)" rx="2" ry="2" />
<text  x="648.90" y="399.5" >c..</text>
</g>
<g >
<title>[[kernel.kallsyms]] (823,335 samples, 2.44%)</title><rect x="184.5" y="261" width="28.9" height="15.0" fill="rgb(213,39,9)" rx="2" ry="2" />
<text  x="187.53" y="271.5" >[[..</text>
</g>
<g >
<title>[[kernel.kallsyms]] (10,195 samples, 0.03%)</title><rect x="266.8" y="373" width="0.4" height="15.0" fill="rgb(213,39,9)" rx="2" ry="2" />
<text  x="269.81" y="383.5" ></text>
</g>
<g >
<title>[[kernel.kallsyms]] (9,187 samples, 0.03%)</title><rect x="266.5" y="341" width="0.3" height="15.0" fill="rgb(213,39,9)" rx="2" ry="2" />
<text  x="269.49" y="351.5" ></text>
</g>
<g >
<title>[[kernel.kallsyms]] (23,376 samples, 0.07%)</title><rect x="10.0" y="357" width="0.8" height="15.0" fill="rgb(213,39,9)" rx="2" ry="2" />
<text  x="13.00" y="367.5" ></text>
</g>
<g >
<title>get_bitmap (1,205,973 samples, 3.58%)</title><rect x="433.0" y="373" width="42.3" height="15.0" fill="rgb(217,58,14)" rx="2" ry="2" />
<text  x="436.03" y="383.5" >get..</text>
</g>
<g >
<title>set_alive_neighbors (843,606 samples, 2.50%)</title><rect x="704.4" y="389" width="29.5" height="15.0" fill="rgb(216,51,12)" rx="2" ry="2" />
<text  x="707.36" y="399.5" >se..</text>
</g>
<g >
<title>futex_wait_simple (15,587 samples, 0.05%)</title><rect x="265.9" y="405" width="0.6" height="15.0" fill="rgb(222,80,19)" rx="2" ry="2" />
<text  x="268.95" y="415.5" ></text>
</g>
<g >
<title>[[kernel.kallsyms]] (414,893 samples, 1.23%)</title><rect x="169.8" y="181" width="14.5" height="15.0" fill="rgb(213,39,9)" rx="2" ry="2" />
<text  x="172.80" y="191.5" ></text>
</g>
<g >
<title>[[kernel.kallsyms]] (23,376 samples, 0.07%)</title><rect x="10.0" y="453" width="0.8" height="15.0" fill="rgb(213,39,9)" rx="2" ry="2" />
<text  x="13.00" y="463.5" ></text>
</g>
<g >
<title>[[kernel.kallsyms]] (9,187 samples, 0.03%)</title><rect x="266.5" y="149" width="0.3" height="15.0" fill="rgb(213,39,9)" rx="2" ry="2" />
<text  x="269.49" y="159.5" ></text>
</g>
<g >
<title>[[kernel.kallsyms]] (1,461,547 samples, 4.34%)</title><rect x="10.8" y="133" width="51.2" height="15.0" fill="rgb(213,39,9)" rx="2" ry="2" />
<text  x="13.82" y="143.5" >[[ker..</text>
</g>
<g >
<title>[[kernel.kallsyms]] (1,461,547 samples, 4.34%)</title><rect x="10.8" y="197" width="51.2" height="15.0" fill="rgb(213,39,9)" rx="2" ry="2" />
<text  x="13.82" y="207.5" >[[ker..</text>
</g>
<g >
<title>futex_wait (15,587 samples, 0.05%)</title><rect x="265.9" y="389" width="0.6" height="15.0" fill="rgb(235,138,33)" rx="2" ry="2" />
<text  x="268.95" y="399.5" ></text>
</g>
<g >
<title>all (33,708,085 samples, 100%)</title><rect x="10.0" y="501" width="1180.0" height="15.0" fill="rgb(213,39,9)" rx="2" ry="2" />
<text  x="13.00" y="511.5" ></text>
</g>
<g >
<title>[[kernel.kallsyms]] (10,195 samples, 0.03%)</title><rect x="266.8" y="357" width="0.4" height="15.0" fill="rgb(213,39,9)" rx="2" ry="2" />
<text  x="269.81" y="367.5" ></text>
</g>
<g >
<title>[[kernel.kallsyms]] (5,870 samples, 0.02%)</title><rect x="184.3" y="437" width="0.2" height="15.0" fill="rgb(213,39,9)" rx="2" ry="2" />
<text  x="187.33" y="447.5" ></text>
</g>
<g >
<title>[[kernel.kallsyms]] (3,554 samples, 0.01%)</title><rect x="184.4" y="389" width="0.1" height="15.0" fill="rgb(213,39,9)" rx="2" ry="2" />
<text  x="187.41" y="399.5" ></text>
</g>
<g >
<title>_dl_map_segment (414,893 samples, 1.23%)</title><rect x="169.8" y="293" width="14.5" height="15.0" fill="rgb(247,194,46)" rx="2" ry="2" />
<text  x="172.80" y="303.5" ></text>
</g>
<g >
<title>set_alive_status_help (631,479 samples, 1.87%)</title><rect x="1030.8" y="405" width="22.1" height="15.0" fill="rgb(248,198,47)" rx="2" ry="2" />
<text  x="1033.83" y="415.5" >s..</text>
</g>
<g >
<title>[[kernel.kallsyms]] (9,187 samples, 0.03%)</title><rect x="266.5" y="245" width="0.3" height="15.0" fill="rgb(213,39,9)" rx="2" ry="2" />
<text  x="269.49" y="255.5" ></text>
</g>
<g >
<title>get_cell_alive_status_and_propagate (4,682,861 samples, 13.89%)</title><rect x="311.3" y="405" width="164.0" height="15.0" fill="rgb(252,218,52)" rx="2" ry="2" />
<text  x="314.32" y="415.5" >get_cell_alive_status..</text>
</g>
<g >
<title>[[kernel.kallsyms]] (23,376 samples, 0.07%)</title><rect x="10.0" y="421" width="0.8" height="15.0" fill="rgb(213,39,9)" rx="2" ry="2" />
<text  x="13.00" y="431.5" ></text>
</g>
<g >
<title>[[kernel.kallsyms]] (15,587 samples, 0.05%)</title><rect x="265.9" y="341" width="0.6" height="15.0" fill="rgb(213,39,9)" rx="2" ry="2" />
<text  x="268.95" y="351.5" ></text>
</g>
<g >
<title>get_cell_from_row (1,580,442 samples, 4.69%)</title><rect x="62.0" y="389" width="55.3" height="15.0" fill="rgb(229,111,26)" rx="2" ry="2" />
<text  x="64.98" y="399.5" >get_c..</text>
</g>
<g >
<title>_dl_map_object (414,893 samples, 1.23%)</title><rect x="169.8" y="341" width="14.5" height="15.0" fill="rgb(248,199,47)" rx="2" ry="2" />
<text  x="172.80" y="351.5" ></text>
</g>
<g >
<title>get_cell_alive_status (4,682,861 samples, 13.89%)</title><rect x="311.3" y="421" width="164.0" height="15.0" fill="rgb(233,132,31)" rx="2" ry="2" />
<text  x="314.32" y="431.5" >get_cell_alive_status</text>
</g>
<g >
<title>openaux (414,893 samples, 1.23%)</title><rect x="169.8" y="357" width="14.5" height="15.0" fill="rgb(252,217,52)" rx="2" ry="2" />
<text  x="172.80" y="367.5" ></text>
</g>
<g >
<title>[[kernel.kallsyms]] (823,335 samples, 2.44%)</title><rect x="184.5" y="277" width="28.9" height="15.0" fill="rgb(213,39,9)" rx="2" ry="2" />
<text  x="187.53" y="287.5" >[[..</text>
</g>
<g >
<title>__random (1,499,650 samples, 4.45%)</title><rect x="117.3" y="357" width="52.5" height="15.0" fill="rgb(245,185,44)" rx="2" ry="2" />
<text  x="120.31" y="367.5" >__ran..</text>
</g>
<g >
<title>[[kernel.kallsyms]] (9,187 samples, 0.03%)</title><rect x="266.5" y="357" width="0.3" height="15.0" fill="rgb(213,39,9)" rx="2" ry="2" />
<text  x="269.49" y="367.5" ></text>
</g>
<g >
<title>[[kernel.kallsyms]] (10,195 samples, 0.03%)</title><rect x="266.8" y="341" width="0.4" height="15.0" fill="rgb(213,39,9)" rx="2" ry="2" />
<text  x="269.81" y="351.5" ></text>
</g>
<g >
<title>increase_alive_neighbors (1,802,511 samples, 5.35%)</title><rect x="670.8" y="405" width="63.1" height="15.0" fill="rgb(221,76,18)" rx="2" ry="2" />
<text  x="673.79" y="415.5" >increa..</text>
</g>
<g >
<title>[[kernel.kallsyms]] (15,587 samples, 0.05%)</title><rect x="265.9" y="309" width="0.6" height="15.0" fill="rgb(213,39,9)" rx="2" ry="2" />
<text  x="268.95" y="319.5" ></text>
</g>
<g >
<title>[[kernel.kallsyms]] (9,187 samples, 0.03%)</title><rect x="266.5" y="197" width="0.3" height="15.0" fill="rgb(213,39,9)" rx="2" ry="2" />
<text  x="269.49" y="207.5" ></text>
</g>
<g >
<title>[[kernel.kallsyms]] (23,376 samples, 0.07%)</title><rect x="10.0" y="245" width="0.8" height="15.0" fill="rgb(213,39,9)" rx="2" ry="2" />
<text  x="13.00" y="255.5" ></text>
</g>
<g >
<title>[[kernel.kallsyms]] (414,893 samples, 1.23%)</title><rect x="169.8" y="229" width="14.5" height="15.0" fill="rgb(213,39,9)" rx="2" ry="2" />
<text  x="172.80" y="239.5" ></text>
</g>
<g >
<title>get_bitmap (1,456,989 samples, 4.32%)</title><rect x="1138.9" y="405" width="51.1" height="15.0" fill="rgb(217,58,14)" rx="2" ry="2" />
<text  x="1141.95" y="415.5" >get_b..</text>
</g>
<g >
<title>[[kernel.kallsyms]] (9,187 samples, 0.03%)</title><rect x="266.5" y="293" width="0.3" height="15.0" fill="rgb(213,39,9)" rx="2" ry="2" />
<text  x="269.49" y="303.5" ></text>
</g>
<g >
<title>[[kernel.kallsyms]] (1,461,547 samples, 4.34%)</title><rect x="10.8" y="181" width="51.2" height="15.0" fill="rgb(213,39,9)" rx="2" ry="2" />
<text  x="13.82" y="191.5" >[[ker..</text>
</g>
<g >
<title>[[kernel.kallsyms]] (1,461,547 samples, 4.34%)</title><rect x="10.8" y="245" width="51.2" height="15.0" fill="rgb(213,39,9)" rx="2" ry="2" />
<text  x="13.82" y="255.5" >[[ker..</text>
</g>
<g >
<title>[[kernel.kallsyms]] (1,461,547 samples, 4.34%)</title><rect x="10.8" y="53" width="51.2" height="15.0" fill="rgb(213,39,9)" rx="2" ry="2" />
<text  x="13.82" y="63.5" >[[ker..</text>
</g>
<g >
<title>__aarch64_cas4_acq (1,499,650 samples, 4.45%)</title><rect x="117.3" y="341" width="52.5" height="15.0" fill="rgb(231,124,29)" rx="2" ry="2" />
<text  x="120.31" y="351.5" >__aar..</text>
</g>
<g >
<title>[[kernel.kallsyms]] (414,893 samples, 1.23%)</title><rect x="169.8" y="117" width="14.5" height="15.0" fill="rgb(213,39,9)" rx="2" ry="2" />
<text  x="172.80" y="127.5" ></text>
</g>
<g >
<title>_dl_map_object_from_fd (414,893 samples, 1.23%)</title><rect x="169.8" y="325" width="14.5" height="15.0" fill="rgb(249,205,49)" rx="2" ry="2" />
<text  x="172.80" y="335.5" ></text>
</g>
<g >
<title>[[kernel.kallsyms]] (23,376 samples, 0.07%)</title><rect x="10.0" y="389" width="0.8" height="15.0" fill="rgb(213,39,9)" rx="2" ry="2" />
<text  x="13.00" y="399.5" ></text>
</g>
<g >
<title>[[kernel.kallsyms]] (23,376 samples, 0.07%)</title><rect x="10.0" y="277" width="0.8" height="15.0" fill="rgb(213,39,9)" rx="2" ry="2" />
<text  x="13.00" y="287.5" ></text>
</g>
<g >
<title>__bsd_signal (10,195 samples, 0.03%)</title><rect x="266.8" y="421" width="0.4" height="15.0" fill="rgb(229,110,26)" rx="2" ry="2" />
<text  x="269.81" y="431.5" ></text>
</g>
<g >
<title>[[kernel.kallsyms]] (1,461,547 samples, 4.34%)</title><rect x="10.8" y="69" width="51.2" height="15.0" fill="rgb(213,39,9)" rx="2" ry="2" />
<text  x="13.82" y="79.5" >[[ker..</text>
</g>
<g >
<title>[[kernel.kallsyms]] (414,893 samples, 1.23%)</title><rect x="169.8" y="69" width="14.5" height="15.0" fill="rgb(213,39,9)" rx="2" ry="2" />
<text  x="172.80" y="79.5" ></text>
</g>
<g >
<title>[[kernel.kallsyms]] (23,376 samples, 0.07%)</title><rect x="10.0" y="229" width="0.8" height="15.0" fill="rgb(213,39,9)" rx="2" ry="2" />
<text  x="13.00" y="239.5" ></text>
</g>
<g >
<title>[[kernel.kallsyms]] (414,893 samples, 1.23%)</title><rect x="169.8" y="133" width="14.5" height="15.0" fill="rgb(213,39,9)" rx="2" ry="2" />
<text  x="172.80" y="143.5" ></text>
</g>
<g >
<title>[[kernel.kallsyms]] (9,187 samples, 0.03%)</title><rect x="266.5" y="261" width="0.3" height="15.0" fill="rgb(213,39,9)" rx="2" ry="2" />
<text  x="269.49" y="271.5" ></text>
</g>
<g >
<title>[[kernel.kallsyms]] (823,335 samples, 2.44%)</title><rect x="184.5" y="405" width="28.9" height="15.0" fill="rgb(213,39,9)" rx="2" ry="2" />
<text  x="187.53" y="415.5" >[[..</text>
</g>
<g >
<title>futex_wake (9,187 samples, 0.03%)</title><rect x="266.5" y="405" width="0.3" height="15.0" fill="rgb(219,65,15)" rx="2" ry="2" />
<text  x="269.49" y="415.5" ></text>
</g>
<g >
<title>start_thread (28,720,969 samples, 85.20%)</title><rect x="184.5" y="453" width="1005.5" height="15.0" fill="rgb(212,34,8)" rx="2" ry="2" />
<text  x="187.53" y="463.5" >start_thread</text>
</g>
<g >
<title>[[kernel.kallsyms]] (9,187 samples, 0.03%)</title><rect x="266.5" y="229" width="0.3" height="15.0" fill="rgb(213,39,9)" rx="2" ry="2" />
<text  x="269.49" y="239.5" ></text>
</g>
<g >
<title>__mmap64 (414,893 samples, 1.23%)</title><rect x="169.8" y="277" width="14.5" height="15.0" fill="rgb(243,175,41)" rx="2" ry="2" />
<text  x="172.80" y="287.5" ></text>
</g>
<g >
<title>[[kernel.kallsyms]] (823,335 samples, 2.44%)</title><rect x="184.5" y="325" width="28.9" height="15.0" fill="rgb(213,39,9)" rx="2" ry="2" />
<text  x="187.53" y="335.5" >[[..</text>
</g>
<g >
<title>initialize_grid (3,080,092 samples, 9.14%)</title><rect x="62.0" y="405" width="107.8" height="15.0" fill="rgb(235,141,33)" rx="2" ry="2" />
<text  x="64.98" y="415.5" >initialize_grid</text>
</g>
<g >
<title>thread_start (28,720,969 samples, 85.20%)</title><rect x="184.5" y="469" width="1005.5" height="15.0" fill="rgb(212,34,8)" rx="2" ry="2" />
<text  x="187.53" y="479.5" >thread_start</text>
</g>
<g >
<title>rand (1,499,650 samples, 4.45%)</title><rect x="117.3" y="373" width="52.5" height="15.0" fill="rgb(243,179,42)" rx="2" ry="2" />
<text  x="120.31" y="383.5" >rand</text>
</g>
<g >
<title>[[kernel.kallsyms]] (15,587 samples, 0.05%)</title><rect x="265.9" y="261" width="0.6" height="15.0" fill="rgb(213,39,9)" rx="2" ry="2" />
<text  x="268.95" y="271.5" ></text>
</g>
<g >
<title>[[kernel.kallsyms]] (5,870 samples, 0.02%)</title><rect x="184.3" y="405" width="0.2" height="15.0" fill="rgb(213,39,9)" rx="2" ry="2" />
<text  x="187.33" y="415.5" ></text>
</g>
<g >
<title>[[kernel.kallsyms]] (15,587 samples, 0.05%)</title><rect x="265.9" y="357" width="0.6" height="15.0" fill="rgb(213,39,9)" rx="2" ry="2" />
<text  x="268.95" y="367.5" ></text>
</g>
<g >
<title>__libc_start_call_main (4,541,639 samples, 13.47%)</title><rect x="10.8" y="437" width="159.0" height="15.0" fill="rgb(210,26,6)" rx="2" ry="2" />
<text  x="13.82" y="447.5" >__libc_start_call_main</text>
</g>
</g>
</svg>
