<?xml version="1.0" standalone="no"?>
<!DOCTYPE svg PUBLIC "-//W3C//DTD SVG 1.1//EN" "http://www.w3.org/Graphics/SVG/1.1/DTD/svg11.dtd">
<svg version="1.1" width="1200" height="566" onload="init(evt)" viewBox="0 0 1200 566" xmlns="http://www.w3.org/2000/svg" xmlns:xlink="http://www.w3.org/1999/xlink">
<!-- Flame graph stack visualization. See https://github.com/brendangregg/FlameGraph for latest version, and http://www.brendangregg.com/flamegraphs.html for examples. -->
<!-- NOTES:  -->
<defs>
	<linearGradient id="background" y1="0" y2="1" x1="0" x2="0" >
		<stop stop-color="#eeeeee" offset="5%" />
		<stop stop-color="#eeeeb0" offset="95%" />
	</linearGradient>
</defs>
<style type="text/css">
	text { font-family:Verdana; font-size:12px; fill:rgb(0,0,0); }
	#search, #ignorecase { opacity:0.1; cursor:pointer; }
	#search:hover, #search.show, #ignorecase:hover, #ignorecase.show { opacity:1; }
	#subtitle { text-anchor:middle; font-color:rgb(160,160,160); }
	#title { text-anchor:middle; font-size:17px}
	#unzoom { cursor:pointer; }
	#frames > *:hover { stroke:black; stroke-width:0.5; cursor:pointer; }
	.hide { display:none; }
	.parent { opacity:0.5; }
</style>
<script type="text/ecmascript">
<![CDATA[
	"use strict";
	var details, searchbtn, unzoombtn, matchedtxt, svg, searching, currentSearchTerm, ignorecase, ignorecaseBtn;
	function init(evt) {
		details = document.getElementById("details").firstChild;
		searchbtn = document.getElementById("search");
		ignorecaseBtn = document.getElementById("ignorecase");
		unzoombtn = document.getElementById("unzoom");
		matchedtxt = document.getElementById("matched");
		svg = document.getElementsByTagName("svg")[0];
		searching = 0;
		currentSearchTerm = null;

		// use GET parameters to restore a flamegraphs state.
		var params = get_params();
		if (params.x && params.y)
			zoom(find_group(document.querySelector('[x="' + params.x + '"][y="' + params.y + '"]')));
                if (params.s) search(params.s);
	}

	// event listeners
	window.addEventListener("click", function(e) {
		var target = find_group(e.target);
		if (target) {
			if (target.nodeName == "a") {
				if (e.ctrlKey === false) return;
				e.preventDefault();
			}
			if (target.classList.contains("parent")) unzoom(true);
			zoom(target);
			if (!document.querySelector('.parent')) {
				// we have basically done a clearzoom so clear the url
				var params = get_params();
				if (params.x) delete params.x;
				if (params.y) delete params.y;
				history.replaceState(null, null, parse_params(params));
				unzoombtn.classList.add("hide");
				return;
			}

			// set parameters for zoom state
			var el = target.querySelector("rect");
			if (el && el.attributes && el.attributes.y && el.attributes._orig_x) {
				var params = get_params()
				params.x = el.attributes._orig_x.value;
				params.y = el.attributes.y.value;
				history.replaceState(null, null, parse_params(params));
			}
		}
		else if (e.target.id == "unzoom") clearzoom();
		else if (e.target.id == "search") search_prompt();
		else if (e.target.id == "ignorecase") toggle_ignorecase();
	}, false)

	// mouse-over for info
	// show
	window.addEventListener("mouseover", function(e) {
		var target = find_group(e.target);
		if (target) details.nodeValue = "Function: " + g_to_text(target);
	}, false)

	// clear
	window.addEventListener("mouseout", function(e) {
		var target = find_group(e.target);
		if (target) details.nodeValue = ' ';
	}, false)

	// ctrl-F for search
	// ctrl-I to toggle case-sensitive search
	window.addEventListener("keydown",function (e) {
		if (e.keyCode === 114 || (e.ctrlKey && e.keyCode === 70)) {
			e.preventDefault();
			search_prompt();
		}
		else if (e.ctrlKey && e.keyCode === 73) {
			e.preventDefault();
			toggle_ignorecase();
		}
	}, false)

	// functions
	function get_params() {
		var params = {};
		var paramsarr = window.location.search.substr(1).split('&');
		for (var i = 0; i < paramsarr.length; ++i) {
			var tmp = paramsarr[i].split("=");
			if (!tmp[0] || !tmp[1]) continue;
			params[tmp[0]]  = decodeURIComponent(tmp[1]);
		}
		return params;
	}
	function parse_params(params) {
		var uri = "?";
		for (var key in params) {
			uri += key + '=' + encodeURIComponent(params[key]) + '&';
		}
		if (uri.slice(-1) == "&")
			uri = uri.substring(0, uri.length - 1);
		if (uri == '?')
			uri = window.location.href.split('?')[0];
		return uri;
	}
	function find_child(node, selector) {
		var children = node.querySelectorAll(selector);
		if (children.length) return children[0];
	}
	function find_group(node) {
		var parent = node.parentElement;
		if (!parent) return;
		if (parent.id == "frames") return node;
		return find_group(parent);
	}
	function orig_save(e, attr, val) {
		if (e.attributes["_orig_" + attr] != undefined) return;
		if (e.attributes[attr] == undefined) return;
		if (val == undefined) val = e.attributes[attr].value;
		e.setAttribute("_orig_" + attr, val);
	}
	function orig_load(e, attr) {
		if (e.attributes["_orig_"+attr] == undefined) return;
		e.attributes[attr].value = e.attributes["_orig_" + attr].value;
		e.removeAttribute("_orig_"+attr);
	}
	function g_to_text(e) {
		var text = find_child(e, "title").firstChild.nodeValue;
		return (text)
	}
	function g_to_func(e) {
		var func = g_to_text(e);
		// if there's any manipulation we want to do to the function
		// name before it's searched, do it here before returning.
		return (func);
	}
	function update_text(e) {
		var r = find_child(e, "rect");
		var t = find_child(e, "text");
		var w = parseFloat(r.attributes.width.value) -3;
		var txt = find_child(e, "title").textContent.replace(/\([^(]*\)$/,"");
		t.attributes.x.value = parseFloat(r.attributes.x.value) + 3;

		// Smaller than this size won't fit anything
		if (w < 2 * 12 * 0.59) {
			t.textContent = "";
			return;
		}

		t.textContent = txt;
		var sl = t.getSubStringLength(0, txt.length);
		// check if only whitespace or if we can fit the entire string into width w
		if (/^ *$/.test(txt) || sl < w)
			return;

		// this isn't perfect, but gives a good starting point
		// and avoids calling getSubStringLength too often
		var start = Math.floor((w/sl) * txt.length);
		for (var x = start; x > 0; x = x-2) {
			if (t.getSubStringLength(0, x + 2) <= w) {
				t.textContent = txt.substring(0, x) + "..";
				return;
			}
		}
		t.textContent = "";
	}

	// zoom
	function zoom_reset(e) {
		if (e.attributes != undefined) {
			orig_load(e, "x");
			orig_load(e, "width");
		}
		if (e.childNodes == undefined) return;
		for (var i = 0, c = e.childNodes; i < c.length; i++) {
			zoom_reset(c[i]);
		}
	}
	function zoom_child(e, x, ratio) {
		if (e.attributes != undefined) {
			if (e.attributes.x != undefined) {
				orig_save(e, "x");
				e.attributes.x.value = (parseFloat(e.attributes.x.value) - x - 10) * ratio + 10;
				if (e.tagName == "text")
					e.attributes.x.value = find_child(e.parentNode, "rect[x]").attributes.x.value + 3;
			}
			if (e.attributes.width != undefined) {
				orig_save(e, "width");
				e.attributes.width.value = parseFloat(e.attributes.width.value) * ratio;
			}
		}

		if (e.childNodes == undefined) return;
		for (var i = 0, c = e.childNodes; i < c.length; i++) {
			zoom_child(c[i], x - 10, ratio);
		}
	}
	function zoom_parent(e) {
		if (e.attributes) {
			if (e.attributes.x != undefined) {
				orig_save(e, "x");
				e.attributes.x.value = 10;
			}
			if (e.attributes.width != undefined) {
				orig_save(e, "width");
				e.attributes.width.value = parseInt(svg.width.baseVal.value) - (10 * 2);
			}
		}
		if (e.childNodes == undefined) return;
		for (var i = 0, c = e.childNodes; i < c.length; i++) {
			zoom_parent(c[i]);
		}
	}
	function zoom(node) {
		var attr = find_child(node, "rect").attributes;
		var width = parseFloat(attr.width.value);
		var xmin = parseFloat(attr.x.value);
		var xmax = parseFloat(xmin + width);
		var ymin = parseFloat(attr.y.value);
		var ratio = (svg.width.baseVal.value - 2 * 10) / width;

		// XXX: Workaround for JavaScript float issues (fix me)
		var fudge = 0.0001;

		unzoombtn.classList.remove("hide");

		var el = document.getElementById("frames").children;
		for (var i = 0; i < el.length; i++) {
			var e = el[i];
			var a = find_child(e, "rect").attributes;
			var ex = parseFloat(a.x.value);
			var ew = parseFloat(a.width.value);
			var upstack;
			// Is it an ancestor
			if (0 == 0) {
				upstack = parseFloat(a.y.value) > ymin;
			} else {
				upstack = parseFloat(a.y.value) < ymin;
			}
			if (upstack) {
				// Direct ancestor
				if (ex <= xmin && (ex+ew+fudge) >= xmax) {
					e.classList.add("parent");
					zoom_parent(e);
					update_text(e);
				}
				// not in current path
				else
					e.classList.add("hide");
			}
			// Children maybe
			else {
				// no common path
				if (ex < xmin || ex + fudge >= xmax) {
					e.classList.add("hide");
				}
				else {
					zoom_child(e, xmin, ratio);
					update_text(e);
				}
			}
		}
		search();
	}
	function unzoom(dont_update_text) {
		unzoombtn.classList.add("hide");
		var el = document.getElementById("frames").children;
		for(var i = 0; i < el.length; i++) {
			el[i].classList.remove("parent");
			el[i].classList.remove("hide");
			zoom_reset(el[i]);
			if(!dont_update_text) update_text(el[i]);
		}
		search();
	}
	function clearzoom() {
		unzoom();

		// remove zoom state
		var params = get_params();
		if (params.x) delete params.x;
		if (params.y) delete params.y;
		history.replaceState(null, null, parse_params(params));
	}

	// search
	function toggle_ignorecase() {
		ignorecase = !ignorecase;
		if (ignorecase) {
			ignorecaseBtn.classList.add("show");
		} else {
			ignorecaseBtn.classList.remove("show");
		}
		reset_search();
		search();
	}
	function reset_search() {
		var el = document.querySelectorAll("#frames rect");
		for (var i = 0; i < el.length; i++) {
			orig_load(el[i], "fill")
		}
		var params = get_params();
		delete params.s;
		history.replaceState(null, null, parse_params(params));
	}
	function search_prompt() {
		if (!searching) {
			var term = prompt("Enter a search term (regexp " +
			    "allowed, eg: ^ext4_)"
			    + (ignorecase ? ", ignoring case" : "")
			    + "\nPress Ctrl-i to toggle case sensitivity", "");
			if (term != null) search(term);
		} else {
			reset_search();
			searching = 0;
			currentSearchTerm = null;
			searchbtn.classList.remove("show");
			searchbtn.firstChild.nodeValue = "Search"
			matchedtxt.classList.add("hide");
			matchedtxt.firstChild.nodeValue = ""
		}
	}
	function search(term) {
		if (term) currentSearchTerm = term;

		var re = new RegExp(currentSearchTerm, ignorecase ? 'i' : '');
		var el = document.getElementById("frames").children;
		var matches = new Object();
		var maxwidth = 0;
		for (var i = 0; i < el.length; i++) {
			var e = el[i];
			var func = g_to_func(e);
			var rect = find_child(e, "rect");
			if (func == null || rect == null)
				continue;

			// Save max width. Only works as we have a root frame
			var w = parseFloat(rect.attributes.width.value);
			if (w > maxwidth)
				maxwidth = w;

			if (func.match(re)) {
				// highlight
				var x = parseFloat(rect.attributes.x.value);
				orig_save(rect, "fill");
				rect.attributes.fill.value = "rgb(230,0,230)";

				// remember matches
				if (matches[x] == undefined) {
					matches[x] = w;
				} else {
					if (w > matches[x]) {
						// overwrite with parent
						matches[x] = w;
					}
				}
				searching = 1;
			}
		}
		if (!searching)
			return;
		var params = get_params();
		params.s = currentSearchTerm;
		history.replaceState(null, null, parse_params(params));

		searchbtn.classList.add("show");
		searchbtn.firstChild.nodeValue = "Reset Search";

		// calculate percent matched, excluding vertical overlap
		var count = 0;
		var lastx = -1;
		var lastw = 0;
		var keys = Array();
		for (k in matches) {
			if (matches.hasOwnProperty(k))
				keys.push(k);
		}
		// sort the matched frames by their x location
		// ascending, then width descending
		keys.sort(function(a, b){
			return a - b;
		});
		// Step through frames saving only the biggest bottom-up frames
		// thanks to the sort order. This relies on the tree property
		// where children are always smaller than their parents.
		var fudge = 0.0001;	// JavaScript floating point
		for (var k in keys) {
			var x = parseFloat(keys[k]);
			var w = matches[keys[k]];
			if (x >= lastx + lastw - fudge) {
				count += w;
				lastx = x;
				lastw = w;
			}
		}
		// display matched percent
		matchedtxt.classList.remove("hide");
		var pct = 100 * count / maxwidth;
		if (pct != 100) pct = pct.toFixed(1)
		matchedtxt.firstChild.nodeValue = "Matched: " + pct + "%";
	}
]]>
</script>
<rect x="0.0" y="0" width="1200.0" height="566.0" fill="url(#background)"  />
<text id="title" x="600.00" y="24" >Flame Graph</text>
<text id="details" x="10.00" y="549" > </text>
<text id="unzoom" x="10.00" y="24" class="hide">Reset Zoom</text>
<text id="search" x="1090.00" y="24" >Search</text>
<text id="ignorecase" x="1174.00" y="24" >ic</text>
<text id="matched" x="1090.00" y="549" > </text>
<g id="frames">
<g >
<title>[[kernel.kallsyms]] (437,467 samples, 1.05%)</title><rect x="100.8" y="261" width="12.4" height="15.0" fill="rgb(213,39,9)" rx="2" ry="2" />
<text  x="103.76" y="271.5" ></text>
</g>
<g >
<title>___pthread_barrier_wait (13,979 samples, 0.03%)</title><rect x="144.3" y="437" width="0.4" height="15.0" fill="rgb(216,51,12)" rx="2" ry="2" />
<text  x="147.27" y="447.5" ></text>
</g>
<g >
<title>extract_alive_status (5,708,525 samples, 13.72%)</title><rect x="409.9" y="421" width="161.9" height="15.0" fill="rgb(223,83,19)" rx="2" ry="2" />
<text  x="412.93" y="431.5" >extract_alive_status</text>
</g>
<g >
<title>[[kernel.kallsyms]] (437,467 samples, 1.05%)</title><rect x="100.8" y="277" width="12.4" height="15.0" fill="rgb(213,39,9)" rx="2" ry="2" />
<text  x="103.76" y="287.5" ></text>
</g>
<g >
<title>[[kernel.kallsyms]] (437,467 samples, 1.05%)</title><rect x="100.8" y="181" width="12.4" height="15.0" fill="rgb(213,39,9)" rx="2" ry="2" />
<text  x="103.76" y="191.5" ></text>
</g>
<g >
<title>[[kernel.kallsyms]] (13,979 samples, 0.03%)</title><rect x="144.3" y="373" width="0.4" height="15.0" fill="rgb(213,39,9)" rx="2" ry="2" />
<text  x="147.27" y="383.5" ></text>
</g>
<g >
<title>_dl_start (437,467 samples, 1.05%)</title><rect x="100.8" y="469" width="12.4" height="15.0" fill="rgb(237,151,36)" rx="2" ry="2" />
<text  x="103.76" y="479.5" ></text>
</g>
<g >
<title>[[kernel.kallsyms]] (9,923 samples, 0.02%)</title><rect x="144.4" y="293" width="0.3" height="15.0" fill="rgb(213,39,9)" rx="2" ry="2" />
<text  x="147.39" y="303.5" ></text>
</g>
<g >
<title>_dl_lookup_symbol_x (13,071 samples, 0.03%)</title><rect x="10.7" y="389" width="0.4" height="15.0" fill="rgb(211,28,6)" rx="2" ry="2" />
<text  x="13.69" y="399.5" ></text>
</g>
<g >
<title>[[kernel.kallsyms]] (13,979 samples, 0.03%)</title><rect x="144.3" y="389" width="0.4" height="15.0" fill="rgb(213,39,9)" rx="2" ry="2" />
<text  x="147.27" y="399.5" ></text>
</g>
<g >
<title>[[kernel.kallsyms]] (595,945 samples, 1.43%)</title><rect x="113.3" y="357" width="16.9" height="15.0" fill="rgb(213,39,9)" rx="2" ry="2" />
<text  x="116.26" y="367.5" ></text>
</g>
<g >
<title>cgol (41,612,688 samples, 100.00%)</title><rect x="10.0" y="501" width="1180.0" height="15.0" fill="rgb(243,179,42)" rx="2" ry="2" />
<text  x="13.00" y="511.5" >cgol</text>
</g>
<g >
<title>[[kernel.kallsyms]] (437,467 samples, 1.05%)</title><rect x="100.8" y="245" width="12.4" height="15.0" fill="rgb(213,39,9)" rx="2" ry="2" />
<text  x="103.76" y="255.5" ></text>
</g>
<g >
<title>start_thread (37,971,022 samples, 91.25%)</title><rect x="113.3" y="469" width="1076.7" height="15.0" fill="rgb(212,34,8)" rx="2" ry="2" />
<text  x="116.26" y="479.5" >start_thread</text>
</g>
<g >
<title>[[kernel.kallsyms]] (437,467 samples, 1.05%)</title><rect x="100.8" y="197" width="12.4" height="15.0" fill="rgb(213,39,9)" rx="2" ry="2" />
<text  x="103.76" y="207.5" ></text>
</g>
<g >
<title>[[kernel.kallsyms]] (13,979 samples, 0.03%)</title><rect x="144.3" y="325" width="0.4" height="15.0" fill="rgb(213,39,9)" rx="2" ry="2" />
<text  x="147.27" y="335.5" ></text>
</g>
<g >
<title>get_cell (18,878,932 samples, 45.37%)</title><rect x="571.8" y="421" width="535.3" height="15.0" fill="rgb(245,185,44)" rx="2" ry="2" />
<text  x="574.80" y="431.5" >get_cell</text>
</g>
<g >
<title>[[kernel.kallsyms]] (437,467 samples, 1.05%)</title><rect x="100.8" y="165" width="12.4" height="15.0" fill="rgb(213,39,9)" rx="2" ry="2" />
<text  x="103.76" y="175.5" ></text>
</g>
<g >
<title>__libc_start_main_impl (3,163,217 samples, 7.60%)</title><rect x="11.1" y="469" width="89.7" height="15.0" fill="rgb(218,63,15)" rx="2" ry="2" />
<text  x="14.06" y="479.5" >__libc_sta..</text>
</g>
<g >
<title>[[kernel.kallsyms]] (595,945 samples, 1.43%)</title><rect x="113.3" y="309" width="16.9" height="15.0" fill="rgb(213,39,9)" rx="2" ry="2" />
<text  x="116.26" y="319.5" ></text>
</g>
<g >
<title>[[kernel.kallsyms]] (9,405 samples, 0.02%)</title><rect x="144.4" y="181" width="0.3" height="15.0" fill="rgb(213,39,9)" rx="2" ry="2" />
<text  x="147.40" y="191.5" ></text>
</g>
<g >
<title>[[kernel.kallsyms]] (9,923 samples, 0.02%)</title><rect x="144.4" y="213" width="0.3" height="15.0" fill="rgb(213,39,9)" rx="2" ry="2" />
<text  x="147.39" y="223.5" ></text>
</g>
<g >
<title>get_bitmap (5,461,466 samples, 13.12%)</title><rect x="813.5" y="405" width="154.9" height="15.0" fill="rgb(217,58,14)" rx="2" ry="2" />
<text  x="816.53" y="415.5" >get_bitmap</text>
</g>
<g >
<title>[[kernel.kallsyms]] (9,923 samples, 0.02%)</title><rect x="144.4" y="245" width="0.3" height="15.0" fill="rgb(213,39,9)" rx="2" ry="2" />
<text  x="147.39" y="255.5" ></text>
</g>
<g >
<title>[[kernel.kallsyms]] (437,467 samples, 1.05%)</title><rect x="100.8" y="37" width="12.4" height="15.0" fill="rgb(213,39,9)" rx="2" ry="2" />
<text  x="103.76" y="47.5" ></text>
</g>
<g >
<title>main (3,163,217 samples, 7.60%)</title><rect x="11.1" y="437" width="89.7" height="15.0" fill="rgb(243,179,42)" rx="2" ry="2" />
<text  x="14.06" y="447.5" >main</text>
</g>
<g >
<title>[unknown] (13,071 samples, 0.03%)</title><rect x="10.7" y="469" width="0.4" height="15.0" fill="rgb(210,24,5)" rx="2" ry="2" />
<text  x="13.69" y="479.5" ></text>
</g>
<g >
<title>__res_thread_freeres (595,945 samples, 1.43%)</title><rect x="113.3" y="437" width="16.9" height="15.0" fill="rgb(212,33,8)" rx="2" ry="2" />
<text  x="116.26" y="447.5" ></text>
</g>
<g >
<title>[[kernel.kallsyms]] (24,420 samples, 0.06%)</title><rect x="10.0" y="437" width="0.7" height="15.0" fill="rgb(213,39,9)" rx="2" ry="2" />
<text  x="13.00" y="447.5" ></text>
</g>
<g >
<title>get_cell_alive_status (29,772,461 samples, 71.54%)</title><rect x="262.9" y="437" width="844.2" height="15.0" fill="rgb(233,132,31)" rx="2" ry="2" />
<text  x="265.90" y="447.5" >get_cell_alive_status</text>
</g>
<g >
<title>[[kernel.kallsyms]] (437,467 samples, 1.05%)</title><rect x="100.8" y="117" width="12.4" height="15.0" fill="rgb(213,39,9)" rx="2" ry="2" />
<text  x="103.76" y="127.5" ></text>
</g>
<g >
<title>[[kernel.kallsyms]] (595,945 samples, 1.43%)</title><rect x="113.3" y="341" width="16.9" height="15.0" fill="rgb(213,39,9)" rx="2" ry="2" />
<text  x="116.26" y="351.5" ></text>
</g>
<g >
<title>[[kernel.kallsyms]] (9,923 samples, 0.02%)</title><rect x="144.4" y="229" width="0.3" height="15.0" fill="rgb(213,39,9)" rx="2" ry="2" />
<text  x="147.39" y="239.5" ></text>
</g>
<g >
<title>__mmap64 (437,467 samples, 1.05%)</title><rect x="100.8" y="293" width="12.4" height="15.0" fill="rgb(243,175,41)" rx="2" ry="2" />
<text  x="103.76" y="303.5" ></text>
</g>
<g >
<title>_start (3,600,684 samples, 8.65%)</title><rect x="11.1" y="485" width="102.1" height="15.0" fill="rgb(245,185,44)" rx="2" ry="2" />
<text  x="14.06" y="495.5" >_start</text>
</g>
<g >
<title>[[kernel.kallsyms]] (24,420 samples, 0.06%)</title><rect x="10.0" y="341" width="0.7" height="15.0" fill="rgb(213,39,9)" rx="2" ry="2" />
<text  x="13.00" y="351.5" ></text>
</g>
<g >
<title>_dl_start_final (437,467 samples, 1.05%)</title><rect x="100.8" y="453" width="12.4" height="15.0" fill="rgb(252,216,51)" rx="2" ry="2" />
<text  x="103.76" y="463.5" ></text>
</g>
<g >
<title>_dl_map_segments (437,467 samples, 1.05%)</title><rect x="100.8" y="325" width="12.4" height="15.0" fill="rgb(254,227,54)" rx="2" ry="2" />
<text  x="103.76" y="335.5" ></text>
</g>
<g >
<title>thread_start (37,971,022 samples, 91.25%)</title><rect x="113.3" y="485" width="1076.7" height="15.0" fill="rgb(212,34,8)" rx="2" ry="2" />
<text  x="116.26" y="495.5" >thread_start</text>
</g>
<g >
<title>__libc_start_call_main (3,163,217 samples, 7.60%)</title><rect x="11.1" y="453" width="89.7" height="15.0" fill="rgb(210,26,6)" rx="2" ry="2" />
<text  x="14.06" y="463.5" >__libc_sta..</text>
</g>
<g >
<title>[[kernel.kallsyms]] (437,467 samples, 1.05%)</title><rect x="100.8" y="149" width="12.4" height="15.0" fill="rgb(213,39,9)" rx="2" ry="2" />
<text  x="103.76" y="159.5" ></text>
</g>
<g >
<title>get_cell_from_row (1,547,251 samples, 3.72%)</title><rect x="11.1" y="405" width="43.8" height="15.0" fill="rgb(229,111,26)" rx="2" ry="2" />
<text  x="14.06" y="415.5" >get_..</text>
</g>
<g >
<title>position_to_grid_idx (634,639 samples, 1.53%)</title><rect x="244.9" y="421" width="18.0" height="15.0" fill="rgb(213,39,9)" rx="2" ry="2" />
<text  x="247.91" y="431.5" ></text>
</g>
<g >
<title>[[kernel.kallsyms]] (24,420 samples, 0.06%)</title><rect x="10.0" y="277" width="0.7" height="15.0" fill="rgb(213,39,9)" rx="2" ry="2" />
<text  x="13.00" y="287.5" ></text>
</g>
<g >
<title>game_loop (13,071 samples, 0.03%)</title><rect x="10.7" y="453" width="0.4" height="15.0" fill="rgb(246,188,45)" rx="2" ry="2" />
<text  x="13.69" y="463.5" ></text>
</g>
<g >
<title>[[kernel.kallsyms]] (24,420 samples, 0.06%)</title><rect x="10.0" y="389" width="0.7" height="15.0" fill="rgb(213,39,9)" rx="2" ry="2" />
<text  x="13.00" y="399.5" ></text>
</g>
<g >
<title>game_loop (37,372,381 samples, 89.81%)</title><rect x="130.2" y="453" width="1059.7" height="15.0" fill="rgb(246,188,45)" rx="2" ry="2" />
<text  x="133.16" y="463.5" >game_loop</text>
</g>
<g >
<title>_dl_runtime_resolve (13,071 samples, 0.03%)</title><rect x="10.7" y="421" width="0.4" height="15.0" fill="rgb(230,117,28)" rx="2" ry="2" />
<text  x="13.69" y="431.5" ></text>
</g>
<g >
<title>[[kernel.kallsyms]] (24,420 samples, 0.06%)</title><rect x="10.0" y="293" width="0.7" height="15.0" fill="rgb(213,39,9)" rx="2" ry="2" />
<text  x="13.00" y="303.5" ></text>
</g>
<g >
<title>[[kernel.kallsyms]] (24,420 samples, 0.06%)</title><rect x="10.0" y="453" width="0.7" height="15.0" fill="rgb(213,39,9)" rx="2" ry="2" />
<text  x="13.00" y="463.5" ></text>
</g>
<g >
<title>[[kernel.kallsyms]] (24,420 samples, 0.06%)</title><rect x="10.0" y="405" width="0.7" height="15.0" fill="rgb(213,39,9)" rx="2" ry="2" />
<text  x="13.00" y="415.5" ></text>
</g>
<g >
<title>position_to_grid_idx (855,840 samples, 2.06%)</title><rect x="1165.6" y="421" width="24.3" height="15.0" fill="rgb(213,39,9)" rx="2" ry="2" />
<text  x="1168.62" y="431.5" >p..</text>
</g>
<g >
<title>_dl_map_object_from_fd (437,467 samples, 1.05%)</title><rect x="100.8" y="341" width="12.4" height="15.0" fill="rgb(249,205,49)" rx="2" ry="2" />
<text  x="103.76" y="351.5" ></text>
</g>
<g >
<title>_dl_sysdep_start (437,467 samples, 1.05%)</title><rect x="100.8" y="437" width="12.4" height="15.0" fill="rgb(234,137,32)" rx="2" ry="2" />
<text  x="103.76" y="447.5" ></text>
</g>
<g >
<title>[[kernel.kallsyms]] (9,405 samples, 0.02%)</title><rect x="144.4" y="165" width="0.3" height="15.0" fill="rgb(213,39,9)" rx="2" ry="2" />
<text  x="147.40" y="175.5" ></text>
</g>
<g >
<title>extract_alive_status_help (3,452,335 samples, 8.30%)</title><rect x="473.9" y="405" width="97.9" height="15.0" fill="rgb(213,41,9)" rx="2" ry="2" />
<text  x="476.90" y="415.5" >extract_ali..</text>
</g>
<g >
<title>[[kernel.kallsyms]] (24,420 samples, 0.06%)</title><rect x="10.0" y="245" width="0.7" height="15.0" fill="rgb(213,39,9)" rx="2" ry="2" />
<text  x="13.00" y="255.5" ></text>
</g>
<g >
<title>[[kernel.kallsyms]] (437,467 samples, 1.05%)</title><rect x="100.8" y="229" width="12.4" height="15.0" fill="rgb(213,39,9)" rx="2" ry="2" />
<text  x="103.76" y="239.5" ></text>
</g>
<g >
<title>[[kernel.kallsyms]] (437,467 samples, 1.05%)</title><rect x="100.8" y="69" width="12.4" height="15.0" fill="rgb(213,39,9)" rx="2" ry="2" />
<text  x="103.76" y="79.5" ></text>
</g>
<g >
<title>[[kernel.kallsyms]] (437,467 samples, 1.05%)</title><rect x="100.8" y="101" width="12.4" height="15.0" fill="rgb(213,39,9)" rx="2" ry="2" />
<text  x="103.76" y="111.5" ></text>
</g>
<g >
<title>rand (1,615,966 samples, 3.88%)</title><rect x="54.9" y="389" width="45.9" height="15.0" fill="rgb(243,179,42)" rx="2" ry="2" />
<text  x="57.94" y="399.5" >rand</text>
</g>
<g >
<title>position_to_grid_idx (4,892,621 samples, 11.76%)</title><rect x="968.4" y="405" width="138.7" height="15.0" fill="rgb(213,39,9)" rx="2" ry="2" />
<text  x="971.39" y="415.5" >position_to_grid_..</text>
</g>
<g >
<title>_dl_map_object_deps (437,467 samples, 1.05%)</title><rect x="100.8" y="405" width="12.4" height="15.0" fill="rgb(219,68,16)" rx="2" ry="2" />
<text  x="103.76" y="415.5" ></text>
</g>
<g >
<title>[[kernel.kallsyms]] (13,979 samples, 0.03%)</title><rect x="144.3" y="357" width="0.4" height="15.0" fill="rgb(213,39,9)" rx="2" ry="2" />
<text  x="147.27" y="367.5" ></text>
</g>
<g >
<title>[[kernel.kallsyms]] (24,420 samples, 0.06%)</title><rect x="10.0" y="309" width="0.7" height="15.0" fill="rgb(213,39,9)" rx="2" ry="2" />
<text  x="13.00" y="319.5" ></text>
</g>
<g >
<title>[[kernel.kallsyms]] (595,945 samples, 1.43%)</title><rect x="113.3" y="373" width="16.9" height="15.0" fill="rgb(213,39,9)" rx="2" ry="2" />
<text  x="116.26" y="383.5" ></text>
</g>
<g >
<title>cell_shift_amount_in_bitmap (1,243,485 samples, 2.99%)</title><rect x="209.6" y="421" width="35.3" height="15.0" fill="rgb(252,220,52)" rx="2" ry="2" />
<text  x="212.65" y="431.5" >ce..</text>
</g>
<g >
<title>do_lookup_x (13,071 samples, 0.03%)</title><rect x="10.7" y="373" width="0.4" height="15.0" fill="rgb(245,187,44)" rx="2" ry="2" />
<text  x="13.69" y="383.5" ></text>
</g>
<g >
<title>[[kernel.kallsyms]] (24,420 samples, 0.06%)</title><rect x="10.0" y="421" width="0.7" height="15.0" fill="rgb(213,39,9)" rx="2" ry="2" />
<text  x="13.00" y="431.5" ></text>
</g>
<g >
<title>dl_main (437,467 samples, 1.05%)</title><rect x="100.8" y="421" width="12.4" height="15.0" fill="rgb(236,145,34)" rx="2" ry="2" />
<text  x="103.76" y="431.5" ></text>
</g>
<g >
<title>determine_new_alive_status (990,770 samples, 2.38%)</title><rect x="144.7" y="437" width="28.1" height="15.0" fill="rgb(224,89,21)" rx="2" ry="2" />
<text  x="147.67" y="447.5" >d..</text>
</g>
<g >
<title>coord_to_position (1,738,389 samples, 4.18%)</title><rect x="764.2" y="405" width="49.3" height="15.0" fill="rgb(246,191,45)" rx="2" ry="2" />
<text  x="767.23" y="415.5" >coor..</text>
</g>
<g >
<title>_dl_map_object (437,467 samples, 1.05%)</title><rect x="100.8" y="357" width="12.4" height="15.0" fill="rgb(248,199,47)" rx="2" ry="2" />
<text  x="103.76" y="367.5" ></text>
</g>
<g >
<title>[[kernel.kallsyms]] (13,979 samples, 0.03%)</title><rect x="144.3" y="405" width="0.4" height="15.0" fill="rgb(213,39,9)" rx="2" ry="2" />
<text  x="147.27" y="415.5" ></text>
</g>
<g >
<title>[[kernel.kallsyms]] (437,467 samples, 1.05%)</title><rect x="100.8" y="213" width="12.4" height="15.0" fill="rgb(213,39,9)" rx="2" ry="2" />
<text  x="103.76" y="223.5" ></text>
</g>
<g >
<title>game_loop (13,071 samples, 0.03%)</title><rect x="10.7" y="437" width="0.4" height="15.0" fill="rgb(246,188,45)" rx="2" ry="2" />
<text  x="13.69" y="447.5" ></text>
</g>
<g >
<title>__libc_thread_freeres (595,945 samples, 1.43%)</title><rect x="113.3" y="453" width="16.9" height="15.0" fill="rgb(245,186,44)" rx="2" ry="2" />
<text  x="116.26" y="463.5" ></text>
</g>
<g >
<title>[[kernel.kallsyms]] (437,467 samples, 1.05%)</title><rect x="100.8" y="53" width="12.4" height="15.0" fill="rgb(213,39,9)" rx="2" ry="2" />
<text  x="103.76" y="63.5" ></text>
</g>
<g >
<title>get_row (1,615,966 samples, 3.88%)</title><rect x="54.9" y="405" width="45.9" height="15.0" fill="rgb(210,25,6)" rx="2" ry="2" />
<text  x="57.94" y="415.5" >get_..</text>
</g>
<g >
<title>futex_wake (13,979 samples, 0.03%)</title><rect x="144.3" y="421" width="0.4" height="15.0" fill="rgb(219,65,15)" rx="2" ry="2" />
<text  x="147.27" y="431.5" ></text>
</g>
<g >
<title>[[kernel.kallsyms]] (595,945 samples, 1.43%)</title><rect x="113.3" y="421" width="16.9" height="15.0" fill="rgb(213,39,9)" rx="2" ry="2" />
<text  x="116.26" y="431.5" ></text>
</g>
<g >
<title>[[kernel.kallsyms]] (9,923 samples, 0.02%)</title><rect x="144.4" y="261" width="0.3" height="15.0" fill="rgb(213,39,9)" rx="2" ry="2" />
<text  x="147.39" y="271.5" ></text>
</g>
<g >
<title>[[kernel.kallsyms]] (24,420 samples, 0.06%)</title><rect x="10.0" y="485" width="0.7" height="15.0" fill="rgb(213,39,9)" rx="2" ry="2" />
<text  x="13.00" y="495.5" ></text>
</g>
<g >
<title>initialize_grid (3,163,217 samples, 7.60%)</title><rect x="11.1" y="421" width="89.7" height="15.0" fill="rgb(235,141,33)" rx="2" ry="2" />
<text  x="14.06" y="431.5" >initialize..</text>
</g>
<g >
<title>[[kernel.kallsyms]] (595,945 samples, 1.43%)</title><rect x="113.3" y="325" width="16.9" height="15.0" fill="rgb(213,39,9)" rx="2" ry="2" />
<text  x="116.26" y="335.5" ></text>
</g>
<g >
<title>[[kernel.kallsyms]] (13,979 samples, 0.03%)</title><rect x="144.3" y="341" width="0.4" height="15.0" fill="rgb(213,39,9)" rx="2" ry="2" />
<text  x="147.27" y="351.5" ></text>
</g>
<g >
<title>__random (1,615,966 samples, 3.88%)</title><rect x="54.9" y="373" width="45.9" height="15.0" fill="rgb(245,185,44)" rx="2" ry="2" />
<text  x="57.94" y="383.5" >__ra..</text>
</g>
<g >
<title>all (41,614,072 samples, 100%)</title><rect x="10.0" y="517" width="1180.0" height="15.0" fill="rgb(213,39,9)" rx="2" ry="2" />
<text  x="13.00" y="527.5" ></text>
</g>
<g >
<title>[[kernel.kallsyms]] (24,420 samples, 0.06%)</title><rect x="10.0" y="373" width="0.7" height="15.0" fill="rgb(213,39,9)" rx="2" ry="2" />
<text  x="13.00" y="383.5" ></text>
</g>
<g >
<title>[[kernel.kallsyms]] (9,923 samples, 0.02%)</title><rect x="144.4" y="277" width="0.3" height="15.0" fill="rgb(213,39,9)" rx="2" ry="2" />
<text  x="147.39" y="287.5" ></text>
</g>
<g >
<title>[[kernel.kallsyms]] (9,923 samples, 0.02%)</title><rect x="144.4" y="197" width="0.3" height="15.0" fill="rgb(213,39,9)" rx="2" ry="2" />
<text  x="147.39" y="207.5" ></text>
</g>
<g >
<title>_dl_catch_exception (437,467 samples, 1.05%)</title><rect x="100.8" y="389" width="12.4" height="15.0" fill="rgb(253,223,53)" rx="2" ry="2" />
<text  x="103.76" y="399.5" ></text>
</g>
<g >
<title>_dl_fixup (13,071 samples, 0.03%)</title><rect x="10.7" y="405" width="0.4" height="15.0" fill="rgb(250,210,50)" rx="2" ry="2" />
<text  x="13.69" y="415.5" ></text>
</g>
<g >
<title>[[kernel.kallsyms]] (24,420 samples, 0.06%)</title><rect x="10.0" y="261" width="0.7" height="15.0" fill="rgb(213,39,9)" rx="2" ry="2" />
<text  x="13.00" y="271.5" ></text>
</g>
<g >
<title>[[kernel.kallsyms]] (24,420 samples, 0.06%)</title><rect x="10.0" y="469" width="0.7" height="15.0" fill="rgb(213,39,9)" rx="2" ry="2" />
<text  x="13.00" y="479.5" ></text>
</g>
<g >
<title>__mmap64 (437,467 samples, 1.05%)</title><rect x="100.8" y="309" width="12.4" height="15.0" fill="rgb(243,175,41)" rx="2" ry="2" />
<text  x="103.76" y="319.5" ></text>
</g>
<g >
<title>[[kernel.kallsyms]] (437,467 samples, 1.05%)</title><rect x="100.8" y="133" width="12.4" height="15.0" fill="rgb(213,39,9)" rx="2" ry="2" />
<text  x="103.76" y="143.5" ></text>
</g>
<g >
<title>get_cell (2,537,524 samples, 6.10%)</title><rect x="191.0" y="437" width="71.9" height="15.0" fill="rgb(245,185,44)" rx="2" ry="2" />
<text  x="193.95" y="447.5" >get_cell</text>
</g>
<g >
<title>[[kernel.kallsyms]] (595,945 samples, 1.43%)</title><rect x="113.3" y="405" width="16.9" height="15.0" fill="rgb(213,39,9)" rx="2" ry="2" />
<text  x="116.26" y="415.5" ></text>
</g>
<g >
<title>extract_alive_status (641,438 samples, 1.54%)</title><rect x="172.8" y="437" width="18.2" height="15.0" fill="rgb(223,83,19)" rx="2" ry="2" />
<text  x="175.76" y="447.5" ></text>
</g>
<g >
<title>set_cell (2,918,577 samples, 7.01%)</title><rect x="1107.1" y="437" width="82.8" height="15.0" fill="rgb(217,59,14)" rx="2" ry="2" />
<text  x="1110.13" y="447.5" >set_cell</text>
</g>
<g >
<title>openaux (437,467 samples, 1.05%)</title><rect x="100.8" y="373" width="12.4" height="15.0" fill="rgb(252,217,52)" rx="2" ry="2" />
<text  x="103.76" y="383.5" ></text>
</g>
<g >
<title>[[kernel.kallsyms]] (24,420 samples, 0.06%)</title><rect x="10.0" y="357" width="0.7" height="15.0" fill="rgb(213,39,9)" rx="2" ry="2" />
<text  x="13.00" y="367.5" ></text>
</g>
<g >
<title>[[kernel.kallsyms]] (13,979 samples, 0.03%)</title><rect x="144.3" y="309" width="0.4" height="15.0" fill="rgb(213,39,9)" rx="2" ry="2" />
<text  x="147.27" y="319.5" ></text>
</g>
<g >
<title>[[kernel.kallsyms]] (595,945 samples, 1.43%)</title><rect x="113.3" y="293" width="16.9" height="15.0" fill="rgb(213,39,9)" rx="2" ry="2" />
<text  x="116.26" y="303.5" ></text>
</g>
<g >
<title>[[kernel.kallsyms]] (437,467 samples, 1.05%)</title><rect x="100.8" y="85" width="12.4" height="15.0" fill="rgb(213,39,9)" rx="2" ry="2" />
<text  x="103.76" y="95.5" ></text>
</g>
<g >
<title>[[kernel.kallsyms]] (595,945 samples, 1.43%)</title><rect x="113.3" y="389" width="16.9" height="15.0" fill="rgb(213,39,9)" rx="2" ry="2" />
<text  x="116.26" y="399.5" ></text>
</g>
<g >
<title>[[kernel.kallsyms]] (24,420 samples, 0.06%)</title><rect x="10.0" y="325" width="0.7" height="15.0" fill="rgb(213,39,9)" rx="2" ry="2" />
<text  x="13.00" y="335.5" ></text>
</g>
<g >
<title>[unknown] (13,071 samples, 0.03%)</title><rect x="10.7" y="485" width="0.4" height="15.0" fill="rgb(210,24,5)" rx="2" ry="2" />
<text  x="13.69" y="495.5" ></text>
</g>
</g>
</svg>
