<?xml version="1.0" standalone="no"?>
<!DOCTYPE svg PUBLIC "-//W3C//DTD SVG 1.1//EN" "http://www.w3.org/Graphics/SVG/1.1/DTD/svg11.dtd">
<svg version="1.1" width="1200" height="342" onload="init(evt)" viewBox="0 0 1200 342" xmlns="http://www.w3.org/2000/svg" xmlns:xlink="http://www.w3.org/1999/xlink">
<!-- Flame graph stack visualization. See https://github.com/brendangregg/FlameGraph for latest version, and http://www.brendangregg.com/flamegraphs.html for examples. -->
<!-- NOTES:  -->
<defs>
	<linearGradient id="background" y1="0" y2="1" x1="0" x2="0" >
		<stop stop-color="#eeeeee" offset="5%" />
		<stop stop-color="#eeeeb0" offset="95%" />
	</linearGradient>
</defs>
<style type="text/css">
	text { font-family:Verdana; font-size:12px; fill:rgb(0,0,0); }
	#search, #ignorecase { opacity:0.1; cursor:pointer; }
	#search:hover, #search.show, #ignorecase:hover, #ignorecase.show { opacity:1; }
	#subtitle { text-anchor:middle; font-color:rgb(160,160,160); }
	#title { text-anchor:middle; font-size:17px}
	#unzoom { cursor:pointer; }
	#frames > *:hover { stroke:black; stroke-width:0.5; cursor:pointer; }
	.hide { display:none; }
	.parent { opacity:0.5; }
</style>
<script type="text/ecmascript">
<![CDATA[
	"use strict";
	var details, searchbtn, unzoombtn, matchedtxt, svg, searching, currentSearchTerm, ignorecase, ignorecaseBtn;
	function init(evt) {
		details = document.getElementById("details").firstChild;
		searchbtn = document.getElementById("search");
		ignorecaseBtn = document.getElementById("ignorecase");
		unzoombtn = document.getElementById("unzoom");
		matchedtxt = document.getElementById("matched");
		svg = document.getElementsByTagName("svg")[0];
		searching = 0;
		currentSearchTerm = null;

		// use GET parameters to restore a flamegraphs state.
		var params = get_params();
		if (params.x && params.y)
			zoom(find_group(document.querySelector('[x="' + params.x + '"][y="' + params.y + '"]')));
                if (params.s) search(params.s);
	}

	// event listeners
	window.addEventListener("click", function(e) {
		var target = find_group(e.target);
		if (target) {
			if (target.nodeName == "a") {
				if (e.ctrlKey === false) return;
				e.preventDefault();
			}
			if (target.classList.contains("parent")) unzoom(true);
			zoom(target);
			if (!document.querySelector('.parent')) {
				// we have basically done a clearzoom so clear the url
				var params = get_params();
				if (params.x) delete params.x;
				if (params.y) delete params.y;
				history.replaceState(null, null, parse_params(params));
				unzoombtn.classList.add("hide");
				return;
			}

			// set parameters for zoom state
			var el = target.querySelector("rect");
			if (el && el.attributes && el.attributes.y && el.attributes._orig_x) {
				var params = get_params()
				params.x = el.attributes._orig_x.value;
				params.y = el.attributes.y.value;
				history.replaceState(null, null, parse_params(params));
			}
		}
		else if (e.target.id == "unzoom") clearzoom();
		else if (e.target.id == "search") search_prompt();
		else if (e.target.id == "ignorecase") toggle_ignorecase();
	}, false)

	// mouse-over for info
	// show
	window.addEventListener("mouseover", function(e) {
		var target = find_group(e.target);
		if (target) details.nodeValue = "Function: " + g_to_text(target);
	}, false)

	// clear
	window.addEventListener("mouseout", function(e) {
		var target = find_group(e.target);
		if (target) details.nodeValue = ' ';
	}, false)

	// ctrl-F for search
	// ctrl-I to toggle case-sensitive search
	window.addEventListener("keydown",function (e) {
		if (e.keyCode === 114 || (e.ctrlKey && e.keyCode === 70)) {
			e.preventDefault();
			search_prompt();
		}
		else if (e.ctrlKey && e.keyCode === 73) {
			e.preventDefault();
			toggle_ignorecase();
		}
	}, false)

	// functions
	function get_params() {
		var params = {};
		var paramsarr = window.location.search.substr(1).split('&');
		for (var i = 0; i < paramsarr.length; ++i) {
			var tmp = paramsarr[i].split("=");
			if (!tmp[0] || !tmp[1]) continue;
			params[tmp[0]]  = decodeURIComponent(tmp[1]);
		}
		return params;
	}
	function parse_params(params) {
		var uri = "?";
		for (var key in params) {
			uri += key + '=' + encodeURIComponent(params[key]) + '&';
		}
		if (uri.slice(-1) == "&")
			uri = uri.substring(0, uri.length - 1);
		if (uri == '?')
			uri = window.location.href.split('?')[0];
		return uri;
	}
	function find_child(node, selector) {
		var children = node.querySelectorAll(selector);
		if (children.length) return children[0];
	}
	function find_group(node) {
		var parent = node.parentElement;
		if (!parent) return;
		if (parent.id == "frames") return node;
		return find_group(parent);
	}
	function orig_save(e, attr, val) {
		if (e.attributes["_orig_" + attr] != undefined) return;
		if (e.attributes[attr] == undefined) return;
		if (val == undefined) val = e.attributes[attr].value;
		e.setAttribute("_orig_" + attr, val);
	}
	function orig_load(e, attr) {
		if (e.attributes["_orig_"+attr] == undefined) return;
		e.attributes[attr].value = e.attributes["_orig_" + attr].value;
		e.removeAttribute("_orig_"+attr);
	}
	function g_to_text(e) {
		var text = find_child(e, "title").firstChild.nodeValue;
		return (text)
	}
	function g_to_func(e) {
		var func = g_to_text(e);
		// if there's any manipulation we want to do to the function
		// name before it's searched, do it here before returning.
		return (func);
	}
	function update_text(e) {
		var r = find_child(e, "rect");
		var t = find_child(e, "text");
		var w = parseFloat(r.attributes.width.value) -3;
		var txt = find_child(e, "title").textContent.replace(/\([^(]*\)$/,"");
		t.attributes.x.value = parseFloat(r.attributes.x.value) + 3;

		// Smaller than this size won't fit anything
		if (w < 2 * 12 * 0.59) {
			t.textContent = "";
			return;
		}

		t.textContent = txt;
		var sl = t.getSubStringLength(0, txt.length);
		// check if only whitespace or if we can fit the entire string into width w
		if (/^ *$/.test(txt) || sl < w)
			return;

		// this isn't perfect, but gives a good starting point
		// and avoids calling getSubStringLength too often
		var start = Math.floor((w/sl) * txt.length);
		for (var x = start; x > 0; x = x-2) {
			if (t.getSubStringLength(0, x + 2) <= w) {
				t.textContent = txt.substring(0, x) + "..";
				return;
			}
		}
		t.textContent = "";
	}

	// zoom
	function zoom_reset(e) {
		if (e.attributes != undefined) {
			orig_load(e, "x");
			orig_load(e, "width");
		}
		if (e.childNodes == undefined) return;
		for (var i = 0, c = e.childNodes; i < c.length; i++) {
			zoom_reset(c[i]);
		}
	}
	function zoom_child(e, x, ratio) {
		if (e.attributes != undefined) {
			if (e.attributes.x != undefined) {
				orig_save(e, "x");
				e.attributes.x.value = (parseFloat(e.attributes.x.value) - x - 10) * ratio + 10;
				if (e.tagName == "text")
					e.attributes.x.value = find_child(e.parentNode, "rect[x]").attributes.x.value + 3;
			}
			if (e.attributes.width != undefined) {
				orig_save(e, "width");
				e.attributes.width.value = parseFloat(e.attributes.width.value) * ratio;
			}
		}

		if (e.childNodes == undefined) return;
		for (var i = 0, c = e.childNodes; i < c.length; i++) {
			zoom_child(c[i], x - 10, ratio);
		}
	}
	function zoom_parent(e) {
		if (e.attributes) {
			if (e.attributes.x != undefined) {
				orig_save(e, "x");
				e.attributes.x.value = 10;
			}
			if (e.attributes.width != undefined) {
				orig_save(e, "width");
				e.attributes.width.value = parseInt(svg.width.baseVal.value) - (10 * 2);
			}
		}
		if (e.childNodes == undefined) return;
		for (var i = 0, c = e.childNodes; i < c.length; i++) {
			zoom_parent(c[i]);
		}
	}
	function zoom(node) {
		var attr = find_child(node, "rect").attributes;
		var width = parseFloat(attr.width.value);
		var xmin = parseFloat(attr.x.value);
		var xmax = parseFloat(xmin + width);
		var ymin = parseFloat(attr.y.value);
		var ratio = (svg.width.baseVal.value - 2 * 10) / width;

		// XXX: Workaround for JavaScript float issues (fix me)
		var fudge = 0.0001;

		unzoombtn.classList.remove("hide");

		var el = document.getElementById("frames").children;
		for (var i = 0; i < el.length; i++) {
			var e = el[i];
			var a = find_child(e, "rect").attributes;
			var ex = parseFloat(a.x.value);
			var ew = parseFloat(a.width.value);
			var upstack;
			// Is it an ancestor
			if (0 == 0) {
				upstack = parseFloat(a.y.value) > ymin;
			} else {
				upstack = parseFloat(a.y.value) < ymin;
			}
			if (upstack) {
				// Direct ancestor
				if (ex <= xmin && (ex+ew+fudge) >= xmax) {
					e.classList.add("parent");
					zoom_parent(e);
					update_text(e);
				}
				// not in current path
				else
					e.classList.add("hide");
			}
			// Children maybe
			else {
				// no common path
				if (ex < xmin || ex + fudge >= xmax) {
					e.classList.add("hide");
				}
				else {
					zoom_child(e, xmin, ratio);
					update_text(e);
				}
			}
		}
		search();
	}
	function unzoom(dont_update_text) {
		unzoombtn.classList.add("hide");
		var el = document.getElementById("frames").children;
		for(var i = 0; i < el.length; i++) {
			el[i].classList.remove("parent");
			el[i].classList.remove("hide");
			zoom_reset(el[i]);
			if(!dont_update_text) update_text(el[i]);
		}
		search();
	}
	function clearzoom() {
		unzoom();

		// remove zoom state
		var params = get_params();
		if (params.x) delete params.x;
		if (params.y) delete params.y;
		history.replaceState(null, null, parse_params(params));
	}

	// search
	function toggle_ignorecase() {
		ignorecase = !ignorecase;
		if (ignorecase) {
			ignorecaseBtn.classList.add("show");
		} else {
			ignorecaseBtn.classList.remove("show");
		}
		reset_search();
		search();
	}
	function reset_search() {
		var el = document.querySelectorAll("#frames rect");
		for (var i = 0; i < el.length; i++) {
			orig_load(el[i], "fill")
		}
		var params = get_params();
		delete params.s;
		history.replaceState(null, null, parse_params(params));
	}
	function search_prompt() {
		if (!searching) {
			var term = prompt("Enter a search term (regexp " +
			    "allowed, eg: ^ext4_)"
			    + (ignorecase ? ", ignoring case" : "")
			    + "\nPress Ctrl-i to toggle case sensitivity", "");
			if (term != null) search(term);
		} else {
			reset_search();
			searching = 0;
			currentSearchTerm = null;
			searchbtn.classList.remove("show");
			searchbtn.firstChild.nodeValue = "Search"
			matchedtxt.classList.add("hide");
			matchedtxt.firstChild.nodeValue = ""
		}
	}
	function search(term) {
		if (term) currentSearchTerm = term;

		var re = new RegExp(currentSearchTerm, ignorecase ? 'i' : '');
		var el = document.getElementById("frames").children;
		var matches = new Object();
		var maxwidth = 0;
		for (var i = 0; i < el.length; i++) {
			var e = el[i];
			var func = g_to_func(e);
			var rect = find_child(e, "rect");
			if (func == null || rect == null)
				continue;

			// Save max width. Only works as we have a root frame
			var w = parseFloat(rect.attributes.width.value);
			if (w > maxwidth)
				maxwidth = w;

			if (func.match(re)) {
				// highlight
				var x = parseFloat(rect.attributes.x.value);
				orig_save(rect, "fill");
				rect.attributes.fill.value = "rgb(230,0,230)";

				// remember matches
				if (matches[x] == undefined) {
					matches[x] = w;
				} else {
					if (w > matches[x]) {
						// overwrite with parent
						matches[x] = w;
					}
				}
				searching = 1;
			}
		}
		if (!searching)
			return;
		var params = get_params();
		params.s = currentSearchTerm;
		history.replaceState(null, null, parse_params(params));

		searchbtn.classList.add("show");
		searchbtn.firstChild.nodeValue = "Reset Search";

		// calculate percent matched, excluding vertical overlap
		var count = 0;
		var lastx = -1;
		var lastw = 0;
		var keys = Array();
		for (k in matches) {
			if (matches.hasOwnProperty(k))
				keys.push(k);
		}
		// sort the matched frames by their x location
		// ascending, then width descending
		keys.sort(function(a, b){
			return a - b;
		});
		// Step through frames saving only the biggest bottom-up frames
		// thanks to the sort order. This relies on the tree property
		// where children are always smaller than their parents.
		var fudge = 0.0001;	// JavaScript floating point
		for (var k in keys) {
			var x = parseFloat(keys[k]);
			var w = matches[keys[k]];
			if (x >= lastx + lastw - fudge) {
				count += w;
				lastx = x;
				lastw = w;
			}
		}
		// display matched percent
		matchedtxt.classList.remove("hide");
		var pct = 100 * count / maxwidth;
		if (pct != 100) pct = pct.toFixed(1)
		matchedtxt.firstChild.nodeValue = "Matched: " + pct + "%";
	}
]]>
</script>
<rect x="0.0" y="0" width="1200.0" height="342.0" fill="url(#background)"  />
<text id="title" x="600.00" y="24" >Flame Graph</text>
<text id="details" x="10.00" y="325" > </text>
<text id="unzoom" x="10.00" y="24" class="hide">Reset Zoom</text>
<text id="search" x="1090.00" y="24" >Search</text>
<text id="ignorecase" x="1174.00" y="24" >ic</text>
<text id="matched" x="1090.00" y="325" > </text>
<g id="frames">
<g >
<title>extract_alive_neighbors (1,077,044 samples, 3.13%)</title><rect x="875.4" y="181" width="36.9" height="15.0" fill="rgb(232,124,29)" rx="2" ry="2" />
<text  x="878.41" y="191.5" >ext..</text>
</g>
<g >
<title>[[kernel.kallsyms]] (28,667 samples, 0.08%)</title><rect x="10.0" y="37" width="1.0" height="15.0" fill="rgb(213,39,9)" rx="2" ry="2" />
<text  x="13.00" y="47.5" ></text>
</g>
<g >
<title>[[kernel.kallsyms]] (4,201 samples, 0.01%)</title><rect x="167.4" y="197" width="0.2" height="15.0" fill="rgb(213,39,9)" rx="2" ry="2" />
<text  x="170.42" y="207.5" ></text>
</g>
<g >
<title>[[kernel.kallsyms]] (28,667 samples, 0.08%)</title><rect x="10.0" y="117" width="1.0" height="15.0" fill="rgb(213,39,9)" rx="2" ry="2" />
<text  x="13.00" y="127.5" ></text>
</g>
<g >
<title>[[kernel.kallsyms]] (3,520 samples, 0.01%)</title><rect x="167.6" y="165" width="0.1" height="15.0" fill="rgb(213,39,9)" rx="2" ry="2" />
<text  x="170.57" y="175.5" ></text>
</g>
<g >
<title>allocate_dtv (1,224,435 samples, 3.56%)</title><rect x="110.2" y="133" width="42.0" height="15.0" fill="rgb(235,139,33)" rx="2" ry="2" />
<text  x="113.20" y="143.5" >all..</text>
</g>
<g >
<title>[[kernel.kallsyms]] (4,201 samples, 0.01%)</title><rect x="167.4" y="213" width="0.2" height="15.0" fill="rgb(213,39,9)" rx="2" ry="2" />
<text  x="170.42" y="223.5" ></text>
</g>
<g >
<title>memset (445,668 samples, 1.29%)</title><rect x="152.2" y="85" width="15.2" height="15.0" fill="rgb(208,14,3)" rx="2" ry="2" />
<text  x="155.15" y="95.5" ></text>
</g>
<g >
<title>thread_start (29,838,402 samples, 86.64%)</title><rect x="167.6" y="261" width="1022.3" height="15.0" fill="rgb(212,34,8)" rx="2" ry="2" />
<text  x="170.57" y="271.5" >thread_start</text>
</g>
<g >
<title>[[kernel.kallsyms]] (28,667 samples, 0.08%)</title><rect x="10.0" y="165" width="1.0" height="15.0" fill="rgb(213,39,9)" rx="2" ry="2" />
<text  x="13.00" y="175.5" ></text>
</g>
<g >
<title>[[kernel.kallsyms]] (8,220 samples, 0.02%)</title><rect x="167.7" y="53" width="0.3" height="15.0" fill="rgb(213,39,9)" rx="2" ry="2" />
<text  x="170.69" y="63.5" ></text>
</g>
<g >
<title>get_cell_from_row (1,418,779 samples, 4.12%)</title><rect x="11.0" y="181" width="48.6" height="15.0" fill="rgb(229,111,26)" rx="2" ry="2" />
<text  x="13.98" y="191.5" >get_..</text>
</g>
<g >
<title>__GI_madvise (8,220 samples, 0.02%)</title><rect x="167.7" y="213" width="0.3" height="15.0" fill="rgb(229,113,27)" rx="2" ry="2" />
<text  x="170.69" y="223.5" ></text>
</g>
<g >
<title>_dl_catch_exception (445,668 samples, 1.29%)</title><rect x="152.2" y="165" width="15.2" height="15.0" fill="rgb(253,223,53)" rx="2" ry="2" />
<text  x="155.15" y="175.5" ></text>
</g>
<g >
<title>__aarch64_swp4_rel (1,476,942 samples, 4.29%)</title><rect x="59.6" y="133" width="50.6" height="15.0" fill="rgb(215,48,11)" rx="2" ry="2" />
<text  x="62.60" y="143.5" >__aar..</text>
</g>
<g >
<title>extract_alive_status_help (1,441,032 samples, 4.18%)</title><rect x="721.8" y="181" width="49.4" height="15.0" fill="rgb(213,41,9)" rx="2" ry="2" />
<text  x="724.83" y="191.5" >extr..</text>
</g>
<g >
<title>[[kernel.kallsyms]] (8,220 samples, 0.02%)</title><rect x="167.7" y="117" width="0.3" height="15.0" fill="rgb(213,39,9)" rx="2" ry="2" />
<text  x="170.69" y="127.5" ></text>
</g>
<g >
<title>__libc_start_call_main (4,120,156 samples, 11.96%)</title><rect x="11.0" y="229" width="141.2" height="15.0" fill="rgb(210,26,6)" rx="2" ry="2" />
<text  x="13.98" y="239.5" >__libc_start_call..</text>
</g>
<g >
<title>game_loop (29,826,662 samples, 86.61%)</title><rect x="168.0" y="229" width="1021.9" height="15.0" fill="rgb(246,188,45)" rx="2" ry="2" />
<text  x="170.97" y="239.5" >game_loop</text>
</g>
<g >
<title>clone (4,201 samples, 0.01%)</title><rect x="167.4" y="245" width="0.2" height="15.0" fill="rgb(246,189,45)" rx="2" ry="2" />
<text  x="170.42" y="255.5" ></text>
</g>
<g >
<title>get_row_idx (980,290 samples, 2.85%)</title><rect x="395.8" y="197" width="33.6" height="15.0" fill="rgb(247,194,46)" rx="2" ry="2" />
<text  x="398.82" y="207.5" >ge..</text>
</g>
<g >
<title>set_cell (1,097,483 samples, 3.19%)</title><rect x="1152.3" y="213" width="37.6" height="15.0" fill="rgb(217,59,14)" rx="2" ry="2" />
<text  x="1155.34" y="223.5" >set..</text>
</g>
<g >
<title>[[kernel.kallsyms]] (8,220 samples, 0.02%)</title><rect x="167.7" y="69" width="0.3" height="15.0" fill="rgb(213,39,9)" rx="2" ry="2" />
<text  x="170.69" y="79.5" ></text>
</g>
<g >
<title>advise_stack_range (8,220 samples, 0.02%)</title><rect x="167.7" y="229" width="0.3" height="15.0" fill="rgb(236,145,34)" rx="2" ry="2" />
<text  x="170.69" y="239.5" ></text>
</g>
<g >
<title>__GI___memset_generic (1,224,435 samples, 3.56%)</title><rect x="110.2" y="101" width="42.0" height="15.0" fill="rgb(210,26,6)" rx="2" ry="2" />
<text  x="113.20" y="111.5" >__G..</text>
</g>
<g >
<title>__GI__dl_allocate_tls (1,224,435 samples, 3.56%)</title><rect x="110.2" y="149" width="42.0" height="15.0" fill="rgb(210,26,6)" rx="2" ry="2" />
<text  x="113.20" y="159.5" >__G..</text>
</g>
<g >
<title>cgol (34,437,094 samples, 100.00%)</title><rect x="10.0" y="277" width="1179.9" height="15.0" fill="rgb(243,179,42)" rx="2" ry="2" />
<text  x="13.00" y="287.5" >cgol</text>
</g>
<g >
<title>get_row_idx (547,754 samples, 1.59%)</title><rect x="623.6" y="165" width="18.8" height="15.0" fill="rgb(247,194,46)" rx="2" ry="2" />
<text  x="626.64" y="175.5" ></text>
</g>
<g >
<title>get_cell_alive_status_and_propagate (13,409,527 samples, 38.94%)</title><rect x="642.4" y="213" width="459.5" height="15.0" fill="rgb(252,218,52)" rx="2" ry="2" />
<text  x="645.41" y="223.5" >get_cell_alive_status_and_propagate</text>
</g>
<g >
<title>[[kernel.kallsyms]] (28,667 samples, 0.08%)</title><rect x="10.0" y="261" width="1.0" height="15.0" fill="rgb(213,39,9)" rx="2" ry="2" />
<text  x="13.00" y="271.5" ></text>
</g>
<g >
<title>dl_main (445,668 samples, 1.29%)</title><rect x="152.2" y="197" width="15.2" height="15.0" fill="rgb(236,145,34)" rx="2" ry="2" />
<text  x="155.15" y="207.5" ></text>
</g>
<g >
<title>[[kernel.kallsyms]] (8,220 samples, 0.02%)</title><rect x="167.7" y="149" width="0.3" height="15.0" fill="rgb(213,39,9)" rx="2" ry="2" />
<text  x="170.69" y="159.5" ></text>
</g>
<g >
<title>extract_alive_status (1,441,032 samples, 4.18%)</title><rect x="721.8" y="197" width="49.4" height="15.0" fill="rgb(223,83,19)" rx="2" ry="2" />
<text  x="724.83" y="207.5" >extr..</text>
</g>
<g >
<title>initialize_grid (2,895,721 samples, 8.41%)</title><rect x="11.0" y="197" width="99.2" height="15.0" fill="rgb(235,141,33)" rx="2" ry="2" />
<text  x="13.98" y="207.5" >initialize_g..</text>
</g>
<g >
<title>start_thread (29,838,402 samples, 86.64%)</title><rect x="167.6" y="245" width="1022.3" height="15.0" fill="rgb(212,34,8)" rx="2" ry="2" />
<text  x="170.57" y="255.5" >start_thread</text>
</g>
<g >
<title>get_row_idx (523,537 samples, 1.52%)</title><rect x="1172.0" y="197" width="17.9" height="15.0" fill="rgb(247,194,46)" rx="2" ry="2" />
<text  x="1175.01" y="207.5" ></text>
</g>
<g >
<title>[[kernel.kallsyms]] (28,667 samples, 0.08%)</title><rect x="10.0" y="197" width="1.0" height="15.0" fill="rgb(213,39,9)" rx="2" ry="2" />
<text  x="13.00" y="207.5" ></text>
</g>
<g >
<title>get_bitmap (884,476 samples, 2.57%)</title><rect x="791.8" y="181" width="30.3" height="15.0" fill="rgb(217,58,14)" rx="2" ry="2" />
<text  x="794.83" y="191.5" >ge..</text>
</g>
<g >
<title>_dl_start_final (445,668 samples, 1.29%)</title><rect x="152.2" y="229" width="15.2" height="15.0" fill="rgb(252,216,51)" rx="2" ry="2" />
<text  x="155.15" y="239.5" ></text>
</g>
<g >
<title>get_cell (2,429,749 samples, 7.06%)</title><rect x="771.2" y="197" width="83.3" height="15.0" fill="rgb(245,185,44)" rx="2" ry="2" />
<text  x="774.21" y="207.5" >get_cell</text>
</g>
<g >
<title>[[kernel.kallsyms]] (28,667 samples, 0.08%)</title><rect x="10.0" y="133" width="1.0" height="15.0" fill="rgb(213,39,9)" rx="2" ry="2" />
<text  x="13.00" y="143.5" ></text>
</g>
<g >
<title>[[kernel.kallsyms]] (8,220 samples, 0.02%)</title><rect x="167.7" y="85" width="0.3" height="15.0" fill="rgb(213,39,9)" rx="2" ry="2" />
<text  x="170.69" y="95.5" ></text>
</g>
<g >
<title>[[kernel.kallsyms]] (8,220 samples, 0.02%)</title><rect x="167.7" y="197" width="0.3" height="15.0" fill="rgb(213,39,9)" rx="2" ry="2" />
<text  x="170.69" y="207.5" ></text>
</g>
<g >
<title>_dl_sysdep_start (445,668 samples, 1.29%)</title><rect x="152.2" y="213" width="15.2" height="15.0" fill="rgb(234,137,32)" rx="2" ry="2" />
<text  x="155.15" y="223.5" ></text>
</g>
<g >
<title>determine_new_alive_status (565,858 samples, 1.64%)</title><rect x="262.0" y="213" width="19.4" height="15.0" fill="rgb(224,89,21)" rx="2" ry="2" />
<text  x="264.97" y="223.5" ></text>
</g>
<g >
<title>__libc_start_main_impl (4,120,156 samples, 11.96%)</title><rect x="11.0" y="245" width="141.2" height="15.0" fill="rgb(218,63,15)" rx="2" ry="2" />
<text  x="13.98" y="255.5" >__libc_start_main..</text>
</g>
<g >
<title>set_cell (5,532,354 samples, 16.06%)</title><rect x="912.3" y="197" width="189.6" height="15.0" fill="rgb(217,59,14)" rx="2" ry="2" />
<text  x="915.31" y="207.5" >set_cell</text>
</g>
<g >
<title>all (34,438,639 samples, 100%)</title><rect x="10.0" y="293" width="1180.0" height="15.0" fill="rgb(213,39,9)" rx="2" ry="2" />
<text  x="13.00" y="303.5" ></text>
</g>
<g >
<title>[[kernel.kallsyms]] (3,520 samples, 0.01%)</title><rect x="167.6" y="197" width="0.1" height="15.0" fill="rgb(213,39,9)" rx="2" ry="2" />
<text  x="170.57" y="207.5" ></text>
</g>
<g >
<title>[[kernel.kallsyms]] (28,667 samples, 0.08%)</title><rect x="10.0" y="213" width="1.0" height="15.0" fill="rgb(213,39,9)" rx="2" ry="2" />
<text  x="13.00" y="223.5" ></text>
</g>
<g >
<title>get_cell_alive_status (6,216,370 samples, 18.05%)</title><rect x="429.4" y="213" width="213.0" height="15.0" fill="rgb(233,132,31)" rx="2" ry="2" />
<text  x="432.41" y="223.5" >get_cell_alive_status</text>
</g>
<g >
<title>openaux (445,668 samples, 1.29%)</title><rect x="152.2" y="149" width="15.2" height="15.0" fill="rgb(252,217,52)" rx="2" ry="2" />
<text  x="155.15" y="159.5" ></text>
</g>
<g >
<title>[[kernel.kallsyms]] (8,220 samples, 0.02%)</title><rect x="167.7" y="165" width="0.3" height="15.0" fill="rgb(213,39,9)" rx="2" ry="2" />
<text  x="170.69" y="175.5" ></text>
</g>
<g >
<title>get_cell (4,321,094 samples, 12.55%)</title><rect x="281.4" y="213" width="148.0" height="15.0" fill="rgb(245,185,44)" rx="2" ry="2" />
<text  x="284.36" y="223.5" >get_cell</text>
</g>
<g >
<title>[[kernel.kallsyms]] (3,520 samples, 0.01%)</title><rect x="167.6" y="229" width="0.1" height="15.0" fill="rgb(213,39,9)" rx="2" ry="2" />
<text  x="170.57" y="239.5" ></text>
</g>
<g >
<title>get_column_idx (1,153,536 samples, 3.35%)</title><rect x="1042.3" y="181" width="39.5" height="15.0" fill="rgb(244,182,43)" rx="2" ry="2" />
<text  x="1045.32" y="191.5" >get..</text>
</g>
<g >
<title>[[kernel.kallsyms]] (28,667 samples, 0.08%)</title><rect x="10.0" y="181" width="1.0" height="15.0" fill="rgb(213,39,9)" rx="2" ry="2" />
<text  x="13.00" y="191.5" ></text>
</g>
<g >
<title>set_bitmap (584,600 samples, 1.70%)</title><rect x="1081.8" y="181" width="20.1" height="15.0" fill="rgb(240,162,38)" rx="2" ry="2" />
<text  x="1084.84" y="191.5" ></text>
</g>
<g >
<title>cell_shift_amount_in_bitmap (1,059,501 samples, 3.08%)</title><rect x="971.8" y="181" width="36.3" height="15.0" fill="rgb(252,220,52)" rx="2" ry="2" />
<text  x="974.82" y="191.5" >cel..</text>
</g>
<g >
<title>_dl_map_object_from_fd (445,668 samples, 1.29%)</title><rect x="152.2" y="117" width="15.2" height="15.0" fill="rgb(249,205,49)" rx="2" ry="2" />
<text  x="155.15" y="127.5" ></text>
</g>
<g >
<title>[[kernel.kallsyms]] (8,220 samples, 0.02%)</title><rect x="167.7" y="181" width="0.3" height="15.0" fill="rgb(213,39,9)" rx="2" ry="2" />
<text  x="170.69" y="191.5" ></text>
</g>
<g >
<title>[[kernel.kallsyms]] (28,667 samples, 0.08%)</title><rect x="10.0" y="69" width="1.0" height="15.0" fill="rgb(213,39,9)" rx="2" ry="2" />
<text  x="13.00" y="79.5" ></text>
</g>
<g >
<title>_dl_map_object_deps (445,668 samples, 1.29%)</title><rect x="152.2" y="181" width="15.2" height="15.0" fill="rgb(219,68,16)" rx="2" ry="2" />
<text  x="155.15" y="191.5" ></text>
</g>
<g >
<title>set_alive_status (1,473,017 samples, 4.28%)</title><rect x="1101.9" y="213" width="50.4" height="15.0" fill="rgb(207,10,2)" rx="2" ry="2" />
<text  x="1104.87" y="223.5" >set_a..</text>
</g>
<g >
<title>get_column_idx (943,513 samples, 2.74%)</title><rect x="822.1" y="181" width="32.4" height="15.0" fill="rgb(244,182,43)" rx="2" ry="2" />
<text  x="825.13" y="191.5" >ge..</text>
</g>
<g >
<title>[[kernel.kallsyms]] (28,667 samples, 0.08%)</title><rect x="10.0" y="149" width="1.0" height="15.0" fill="rgb(213,39,9)" rx="2" ry="2" />
<text  x="13.00" y="159.5" ></text>
</g>
<g >
<title>extract_alive_status (1,799,100 samples, 5.22%)</title><rect x="484.0" y="181" width="61.6" height="15.0" fill="rgb(223,83,19)" rx="2" ry="2" />
<text  x="486.99" y="191.5" >extrac..</text>
</g>
<g >
<title>[[kernel.kallsyms]] (28,667 samples, 0.08%)</title><rect x="10.0" y="85" width="1.0" height="15.0" fill="rgb(213,39,9)" rx="2" ry="2" />
<text  x="13.00" y="95.5" ></text>
</g>
<g >
<title>_start (4,565,824 samples, 13.26%)</title><rect x="11.0" y="261" width="156.4" height="15.0" fill="rgb(245,185,44)" rx="2" ry="2" />
<text  x="13.98" y="271.5" >_start</text>
</g>
<g >
<title>cell_shift_amount_in_bitmap (2,171,830 samples, 6.31%)</title><rect x="321.4" y="197" width="74.4" height="15.0" fill="rgb(252,220,52)" rx="2" ry="2" />
<text  x="324.41" y="207.5" >cell_shi..</text>
</g>
<g >
<title>[[kernel.kallsyms]] (8,220 samples, 0.02%)</title><rect x="167.7" y="133" width="0.3" height="15.0" fill="rgb(213,39,9)" rx="2" ry="2" />
<text  x="170.69" y="143.5" ></text>
</g>
<g >
<title>allocate_stack (1,224,435 samples, 3.56%)</title><rect x="110.2" y="165" width="42.0" height="15.0" fill="rgb(243,176,42)" rx="2" ry="2" />
<text  x="113.20" y="175.5" >all..</text>
</g>
<g >
<title>get_cell (2,824,353 samples, 8.20%)</title><rect x="545.6" y="181" width="96.8" height="15.0" fill="rgb(245,185,44)" rx="2" ry="2" />
<text  x="548.64" y="191.5" >get_cell</text>
</g>
<g >
<title>get_column_idx (1,113,986 samples, 3.23%)</title><rect x="585.5" y="165" width="38.1" height="15.0" fill="rgb(244,182,43)" rx="2" ry="2" />
<text  x="588.47" y="175.5" >get..</text>
</g>
<g >
<title>get_bitmap (997,999 samples, 2.90%)</title><rect x="1008.1" y="181" width="34.2" height="15.0" fill="rgb(217,58,14)" rx="2" ry="2" />
<text  x="1011.12" y="191.5" >ge..</text>
</g>
<g >
<title>_dl_map_object (445,668 samples, 1.29%)</title><rect x="152.2" y="133" width="15.2" height="15.0" fill="rgb(248,199,47)" rx="2" ry="2" />
<text  x="155.15" y="143.5" ></text>
</g>
<g >
<title>__random (1,476,942 samples, 4.29%)</title><rect x="59.6" y="149" width="50.6" height="15.0" fill="rgb(245,185,44)" rx="2" ry="2" />
<text  x="62.60" y="159.5" >__ran..</text>
</g>
<g >
<title>rand (1,476,942 samples, 4.29%)</title><rect x="59.6" y="165" width="50.6" height="15.0" fill="rgb(243,179,42)" rx="2" ry="2" />
<text  x="62.60" y="175.5" >rand</text>
</g>
<g >
<title>get_cell_alive_status_and_propagate (5,798,242 samples, 16.84%)</title><rect x="443.7" y="197" width="198.7" height="15.0" fill="rgb(252,218,52)" rx="2" ry="2" />
<text  x="446.74" y="207.5" >get_cell_alive_status_and_..</text>
</g>
<g >
<title>extract_alive_status_help (1,799,100 samples, 5.22%)</title><rect x="484.0" y="165" width="61.6" height="15.0" fill="rgb(213,41,9)" rx="2" ry="2" />
<text  x="486.99" y="175.5" >extrac..</text>
</g>
<g >
<title>[[kernel.kallsyms]] (8,220 samples, 0.02%)</title><rect x="167.7" y="101" width="0.3" height="15.0" fill="rgb(213,39,9)" rx="2" ry="2" />
<text  x="170.69" y="111.5" ></text>
</g>
<g >
<title>[[kernel.kallsyms]] (28,667 samples, 0.08%)</title><rect x="10.0" y="101" width="1.0" height="15.0" fill="rgb(213,39,9)" rx="2" ry="2" />
<text  x="13.00" y="111.5" ></text>
</g>
<g >
<title>get_row (1,476,942 samples, 4.29%)</title><rect x="59.6" y="181" width="50.6" height="15.0" fill="rgb(210,25,6)" rx="2" ry="2" />
<text  x="62.60" y="191.5" >get_row</text>
</g>
<g >
<title>[[kernel.kallsyms]] (3,520 samples, 0.01%)</title><rect x="167.6" y="213" width="0.1" height="15.0" fill="rgb(213,39,9)" rx="2" ry="2" />
<text  x="170.57" y="223.5" ></text>
</g>
<g >
<title>_dl_start (445,668 samples, 1.29%)</title><rect x="152.2" y="245" width="15.2" height="15.0" fill="rgb(237,151,36)" rx="2" ry="2" />
<text  x="155.15" y="255.5" ></text>
</g>
<g >
<title>[[kernel.kallsyms]] (4,201 samples, 0.01%)</title><rect x="167.4" y="229" width="0.2" height="15.0" fill="rgb(213,39,9)" rx="2" ry="2" />
<text  x="170.42" y="239.5" ></text>
</g>
<g >
<title>_dl_map_segments (445,668 samples, 1.29%)</title><rect x="152.2" y="101" width="15.2" height="15.0" fill="rgb(254,227,54)" rx="2" ry="2" />
<text  x="155.15" y="111.5" ></text>
</g>
<g >
<title>[[kernel.kallsyms]] (3,520 samples, 0.01%)</title><rect x="167.6" y="181" width="0.1" height="15.0" fill="rgb(213,39,9)" rx="2" ry="2" />
<text  x="170.57" y="191.5" ></text>
</g>
<g >
<title>set_alive_status_help (1,473,017 samples, 4.28%)</title><rect x="1101.9" y="197" width="50.4" height="15.0" fill="rgb(248,198,47)" rx="2" ry="2" />
<text  x="1104.87" y="207.5" >set_a..</text>
</g>
<g >
<title>__pthread_create_2_1 (1,224,435 samples, 3.56%)</title><rect x="110.2" y="181" width="42.0" height="15.0" fill="rgb(242,172,41)" rx="2" ry="2" />
<text  x="113.20" y="191.5" >__p..</text>
</g>
<g >
<title>[[kernel.kallsyms]] (28,667 samples, 0.08%)</title><rect x="10.0" y="245" width="1.0" height="15.0" fill="rgb(213,39,9)" rx="2" ry="2" />
<text  x="13.00" y="255.5" ></text>
</g>
<g >
<title>[[kernel.kallsyms]] (28,667 samples, 0.08%)</title><rect x="10.0" y="229" width="1.0" height="15.0" fill="rgb(213,39,9)" rx="2" ry="2" />
<text  x="13.00" y="239.5" ></text>
</g>
<g >
<title>start_threads (1,224,435 samples, 3.56%)</title><rect x="110.2" y="197" width="42.0" height="15.0" fill="rgb(219,67,16)" rx="2" ry="2" />
<text  x="113.20" y="207.5" >sta..</text>
</g>
<g >
<title>___pthread_barrier_wait (2,946 samples, 0.01%)</title><rect x="261.9" y="213" width="0.1" height="15.0" fill="rgb(216,51,12)" rx="2" ry="2" />
<text  x="264.87" y="223.5" ></text>
</g>
<g >
<title>increase_alive_neighbors (1,688,402 samples, 4.90%)</title><rect x="854.5" y="197" width="57.8" height="15.0" fill="rgb(221,76,18)" rx="2" ry="2" />
<text  x="857.46" y="207.5" >increa..</text>
</g>
<g >
<title>[[kernel.kallsyms]] (28,667 samples, 0.08%)</title><rect x="10.0" y="53" width="1.0" height="15.0" fill="rgb(213,39,9)" rx="2" ry="2" />
<text  x="13.00" y="63.5" ></text>
</g>
<g >
<title>create_thread (4,201 samples, 0.01%)</title><rect x="167.4" y="261" width="0.2" height="15.0" fill="rgb(210,24,5)" rx="2" ry="2" />
<text  x="170.42" y="271.5" ></text>
</g>
<g >
<title>calloc (1,224,435 samples, 3.56%)</title><rect x="110.2" y="117" width="42.0" height="15.0" fill="rgb(245,186,44)" rx="2" ry="2" />
<text  x="113.20" y="127.5" >cal..</text>
</g>
<g >
<title>main (4,120,156 samples, 11.96%)</title><rect x="11.0" y="213" width="141.2" height="15.0" fill="rgb(243,179,42)" rx="2" ry="2" />
<text  x="13.98" y="223.5" >main</text>
</g>
</g>
</svg>
